{"glyphs":{"0":{"ha":556,"x_min":0,"x_max":486,"o":"m 0 556 l 69 556 l 69 625 l 417 625 l 417 556 l 486 556 l 486 69 l 417 69 l 417 0 l 69 0 l 69 69 l 0 69 l 0 556 m 347 556 l 69 556 l 69 347 l 139 347 l 139 69 l 417 69 l 417 278 l 347 278 l 347 556 z "},"1":{"ha":486,"x_min":0,"x_max":417,"o":"m 69 625 l 278 625 l 278 69 l 417 69 l 417 0 l 0 0 l 0 69 l 139 69 l 139 347 l 208 347 l 208 556 l 69 556 l 69 625 z "},"2":{"ha":556,"x_min":0,"x_max":486,"o":"m 0 625 l 417 625 l 417 556 l 486 556 l 486 347 l 417 347 l 417 278 l 139 278 l 139 69 l 486 69 l 486 0 l 0 0 l 0 278 l 69 278 l 69 347 l 417 347 l 417 556 l 0 556 l 0 625 z "},"3":{"ha":556,"x_min":0,"x_max":486,"o":"m 69 347 l 417 347 l 417 556 l 0 556 l 0 625 l 417 625 l 417 556 l 486 556 l 486 347 l 417 347 l 417 278 l 486 278 l 486 69 l 417 69 l 417 0 l 0 0 l 0 69 l 347 69 l 347 278 l 69 278 l 69 347 z "},"4":{"ha":556,"x_min":0,"x_max":486,"o":"m 0 625 l 69 625 l 69 347 l 417 347 l 417 625 l 486 625 l 486 0 l 347 0 l 347 278 l 0 278 l 0 625 z "},"5":{"ha":556,"x_min":0,"x_max":486,"o":"m 0 625 l 486 625 l 486 556 l 69 556 l 69 347 l 417 347 l 417 278 l 486 278 l 486 69 l 417 69 l 417 0 l 0 0 l 0 69 l 347 69 l 347 278 l 0 278 l 0 625 z "},"6":{"ha":556,"x_min":0,"x_max":486,"o":"m 0 556 l 69 556 l 69 625 l 417 625 l 417 556 l 69 556 l 69 347 l 417 347 l 417 278 l 486 278 l 486 69 l 417 69 l 417 0 l 69 0 l 69 69 l 0 69 l 0 556 m 139 69 l 417 69 l 417 278 l 139 278 l 139 69 z "},"7":{"ha":556,"x_min":0,"x_max":486,"o":"m 0 625 l 486 625 l 486 0 l 347 0 l 347 347 l 417 347 l 417 556 l 0 556 l 0 625 z "},"8":{"ha":556,"x_min":0,"x_max":486,"o":"m 0 556 l 69 556 l 69 625 l 417 625 l 417 556 l 486 556 l 486 347 l 417 347 l 417 278 l 486 278 l 486 69 l 417 69 l 417 0 l 69 0 l 69 69 l 0 69 l 0 278 l 69 278 l 69 347 l 0 347 l 0 556 m 69 347 l 417 347 l 417 556 l 69 556 l 69 347 m 139 278 l 139 69 l 347 69 l 347 278 l 139 278 z "},"9":{"ha":556,"x_min":0,"x_max":486,"o":"m 0 556 l 69 556 l 69 625 l 417 625 l 417 556 l 486 556 l 486 69 l 417 69 l 417 0 l 69 0 l 69 69 l 347 69 l 347 278 l 69 278 l 69 347 l 0 347 l 0 556 m 69 347 l 417 347 l 417 556 l 69 556 l 69 347 z "}," ":{"ha":556,"x_min":0,"x_max":0,"o":""},"%":{"ha":625,"x_min":0,"x_max":556,"o":"m 0 625 l 208 625 l 208 417 l 278 417 l 278 556 l 347 556 l 347 417 l 278 417 l 278 139 l 208 139 l 208 0 l 69 0 l 69 139 l 139 139 l 139 278 l 208 278 l 208 417 l 0 417 l 0 625 m 347 208 l 556 208 l 556 0 l 347 0 l 347 208 m 417 69 l 486 69 l 486 139 l 417 139 l 417 69 m 69 486 l 139 486 l 139 556 l 69 556 l 69 486 z "},"&":{"ha":625,"x_min":0,"x_max":556,"o":"m 0 556 l 69 556 l 69 625 l 347 625 l 347 556 l 417 556 l 417 347 l 556 347 l 556 278 l 417 278 l 417 69 l 556 69 l 556 0 l 417 0 l 417 69 l 347 69 l 347 0 l 69 0 l 69 69 l 0 69 l 0 278 l 69 278 l 69 347 l 0 347 l 0 556 m 69 347 l 347 347 l 347 556 l 69 556 l 69 347 m 139 69 l 347 69 l 347 278 l 139 278 l 139 69 m 347 278 l 417 278 l 417 347 l 347 347 l 347 278 z "},"'":{"ha":139,"x_min":0,"x_max":69,"o":"m 0 625 l 69 625 l 69 417 l 0 417 l 0 625 z "},"(":{"ha":347,"x_min":0,"x_max":278,"o":"m 0 556 l 69 556 l 69 625 l 278 625 l 278 556 l 69 556 l 69 347 l 139 347 l 139 69 l 278 69 l 278 0 l 69 0 l 69 69 l 0 69 l 0 556 z "},")":{"ha":347,"x_min":0,"x_max":278,"o":"m 0 625 l 208 625 l 208 556 l 278 556 l 278 69 l 208 69 l 208 0 l 0 0 l 0 69 l 139 69 l 139 347 l 208 347 l 208 556 l 0 556 l 0 625 z "},"*":{"ha":417,"x_min":0,"x_max":347,"o":"m 69 486 l 139 486 l 139 417 l 208 417 l 208 486 l 278 486 l 278 417 l 208 417 l 208 347 l 347 347 l 347 278 l 208 278 l 208 208 l 278 208 l 278 139 l 208 139 l 208 208 l 139 208 l 139 139 l 69 139 l 69 208 l 139 208 l 139 278 l 0 278 l 0 347 l 139 347 l 139 417 l 69 417 l 69 486 z "},"+":{"ha":556,"x_min":0,"x_max":486,"o":"m 0 347 l 208 347 l 208 556 l 278 556 l 278 347 l 486 347 l 486 278 l 347 278 l 347 69 l 208 69 l 208 278 l 0 278 l 0 347 z "},",":{"ha":208,"x_min":0,"x_max":139,"o":"m 0 69 l 139 69 l 139 -139 l 69 -139 l 69 0 l 0 0 l 0 69 z "},"-":{"ha":556,"x_min":0,"x_max":486,"o":"m 0 347 l 486 347 l 486 278 l 0 278 l 0 347 z "},".":{"ha":208,"x_min":0,"x_max":139,"o":"m 0 69 l 139 69 l 139 0 l 0 0 l 0 69 z "},"/":{"ha":347,"x_min":0,"x_max":278,"o":"m 0 139 l 69 139 l 69 278 l 139 278 l 139 417 l 208 417 l 208 556 l 278 556 l 278 417 l 208 417 l 208 139 l 139 139 l 139 0 l 0 0 l 0 139 z "},":":{"ha":208,"x_min":0,"x_max":139,"o":"m 0 486 l 139 486 l 139 417 l 0 417 l 0 486 m 0 208 l 139 208 l 139 139 l 0 139 l 0 208 z "},";":{"ha":208,"x_min":0,"x_max":139,"o":"m 0 69 l 139 69 l 139 -139 l 69 -139 l 69 0 l 0 0 l 0 69 m 0 486 l 139 486 l 139 417 l 0 417 l 0 486 z "},"<":{"ha":347,"x_min":0,"x_max":278,"o":"m 0 347 l 69 347 l 69 417 l 139 417 l 139 486 l 208 486 l 208 556 l 278 556 l 278 486 l 208 486 l 208 417 l 139 417 l 139 278 l 208 278 l 208 208 l 278 208 l 278 69 l 208 69 l 208 139 l 139 139 l 139 208 l 69 208 l 69 278 l 0 278 l 0 347 z "},"=":{"ha":556,"x_min":0,"x_max":486,"o":"m 0 417 l 486 417 l 486 347 l 0 347 l 0 417 m 0 208 l 486 208 l 486 139 l 0 139 l 0 208 z "},">":{"ha":347,"x_min":0,"x_max":278,"o":"m 0 556 l 69 556 l 69 486 l 139 486 l 139 417 l 208 417 l 208 347 l 278 347 l 278 278 l 208 278 l 208 208 l 139 208 l 139 139 l 69 139 l 69 69 l 0 69 l 0 208 l 69 208 l 69 278 l 139 278 l 139 417 l 69 417 l 69 486 l 0 486 l 0 556 z "},"?":{"ha":556,"x_min":0,"x_max":486,"o":"m 0 556 l 69 556 l 69 625 l 417 625 l 417 556 l 486 556 l 486 347 l 417 347 l 417 278 l 347 278 l 347 139 l 208 139 l 208 347 l 417 347 l 417 556 l 69 556 l 69 486 l 0 486 l 0 556 m 208 69 l 347 69 l 347 0 l 208 0 l 208 69 z "},"@":{"ha":556,"x_min":0,"x_max":486,"o":"m 0 625 l 486 625 l 486 139 l 208 139 l 208 486 l 417 486 l 417 556 l 69 556 l 69 347 l 139 347 l 139 69 l 417 69 l 417 0 l 0 0 l 0 625 m 278 347 l 347 347 l 347 208 l 417 208 l 417 417 l 278 417 l 278 347 z "},"A":{"ha":556,"x_min":0,"x_max":486,"o":"m 0 556 l 69 556 l 69 625 l 417 625 l 417 556 l 486 556 l 486 0 l 347 0 l 347 278 l 139 278 l 139 0 l 0 0 l 0 556 m 69 347 l 417 347 l 417 556 l 69 556 l 69 347 z "},"B":{"ha":556,"x_min":0,"x_max":486,"o":"m 0 625 l 417 625 l 417 556 l 486 556 l 486 347 l 417 347 l 417 278 l 486 278 l 486 69 l 417 69 l 417 0 l 0 0 l 0 625 m 69 347 l 417 347 l 417 556 l 69 556 l 69 347 m 417 278 l 139 278 l 139 69 l 417 69 l 417 278 z "},"C":{"ha":556,"x_min":0,"x_max":486,"o":"m 0 556 l 69 556 l 69 625 l 486 625 l 486 556 l 69 556 l 69 347 l 139 347 l 139 69 l 486 69 l 486 0 l 69 0 l 69 69 l 0 69 l 0 556 z "},"D":{"ha":556,"x_min":0,"x_max":486,"o":"m 0 625 l 417 625 l 417 556 l 486 556 l 486 69 l 417 69 l 417 0 l 0 0 l 0 625 m 417 556 l 69 556 l 69 347 l 139 347 l 139 69 l 417 69 l 417 556 z "},"E":{"ha":556,"x_min":0,"x_max":486,"o":"m 0 625 l 486 625 l 486 556 l 69 556 l 69 347 l 417 347 l 417 278 l 139 278 l 139 69 l 486 69 l 486 0 l 0 0 l 0 625 z "},"F":{"ha":556,"x_min":0,"x_max":486,"o":"m 0 625 l 486 625 l 486 556 l 69 556 l 69 347 l 417 347 l 417 278 l 139 278 l 139 0 l 0 0 l 0 625 z "},"G":{"ha":556,"x_min":0,"x_max":486,"o":"m 0 556 l 69 556 l 69 625 l 417 625 l 417 556 l 69 556 l 69 347 l 139 347 l 139 69 l 417 69 l 417 278 l 278 278 l 278 347 l 486 347 l 486 69 l 417 69 l 417 0 l 69 0 l 69 69 l 0 69 l 0 556 z "},"H":{"ha":556,"x_min":0,"x_max":486,"o":"m 0 625 l 69 625 l 69 347 l 417 347 l 417 625 l 486 625 l 486 0 l 347 0 l 347 278 l 139 278 l 139 0 l 0 0 l 0 625 z "},"I":{"ha":347,"x_min":0,"x_max":278,"o":"m 0 625 l 278 625 l 278 556 l 208 556 l 208 69 l 278 69 l 278 0 l 0 0 l 0 69 l 69 69 l 69 347 l 139 347 l 139 556 l 0 556 l 0 625 z "},"J":{"ha":556,"x_min":0,"x_max":486,"o":"m 0 625 l 486 625 l 486 69 l 417 69 l 417 0 l 69 0 l 69 69 l 0 69 l 0 278 l 69 278 l 69 69 l 347 69 l 347 347 l 417 347 l 417 556 l 0 556 l 0 625 z "},"K":{"ha":556,"x_min":0,"x_max":486,"o":"m 0 625 l 69 625 l 69 347 l 278 347 l 278 417 l 347 417 l 347 486 l 417 486 l 417 625 l 486 625 l 486 486 l 417 486 l 417 417 l 347 417 l 347 347 l 278 347 l 278 278 l 347 278 l 347 208 l 417 208 l 417 139 l 486 139 l 486 0 l 417 0 l 417 139 l 347 139 l 347 208 l 278 208 l 278 278 l 139 278 l 139 0 l 0 0 l 0 625 z "},"L":{"ha":556,"x_min":0,"x_max":486,"o":"m 0 625 l 69 625 l 69 347 l 139 347 l 139 69 l 486 69 l 486 0 l 0 0 l 0 625 z "},"M":{"ha":556,"x_min":0,"x_max":486,"o":"m 0 625 l 69 625 l 69 417 l 139 417 l 139 347 l 208 347 l 208 278 l 278 278 l 278 347 l 347 347 l 347 417 l 417 417 l 417 625 l 486 625 l 486 0 l 347 0 l 347 278 l 278 278 l 278 139 l 208 139 l 208 278 l 139 278 l 139 0 l 0 0 l 0 625 z "},"N":{"ha":556,"x_min":0,"x_max":486,"o":"m 0 625 l 69 625 l 69 486 l 139 486 l 139 417 l 208 417 l 208 347 l 278 347 l 278 278 l 347 278 l 347 208 l 417 208 l 417 625 l 486 625 l 486 0 l 417 0 l 417 139 l 347 139 l 347 208 l 278 208 l 278 278 l 208 278 l 208 347 l 139 347 l 139 0 l 0 0 l 0 625 z "},"O":{"ha":556,"x_min":0,"x_max":486,"o":"m 0 556 l 69 556 l 69 625 l 417 625 l 417 556 l 486 556 l 486 69 l 417 69 l 417 0 l 69 0 l 69 69 l 0 69 l 0 556 m 69 347 l 139 347 l 139 69 l 347 69 l 347 347 l 417 347 l 417 556 l 69 556 l 69 347 z "},"P":{"ha":556,"x_min":0,"x_max":486,"o":"m 0 625 l 417 625 l 417 556 l 486 556 l 486 347 l 417 347 l 417 278 l 139 278 l 139 0 l 0 0 l 0 625 m 69 347 l 417 347 l 417 556 l 69 556 l 69 347 z "},"Q":{"ha":556,"x_min":0,"x_max":486,"o":"m 0 556 l 69 556 l 69 625 l 417 625 l 417 556 l 486 556 l 486 0 l 69 0 l 69 69 l 0 69 l 0 556 m 69 69 l 347 69 l 347 347 l 417 347 l 417 556 l 69 556 l 69 69 z "},"R":{"ha":556,"x_min":0,"x_max":486,"o":"m 0 625 l 417 625 l 417 556 l 486 556 l 486 347 l 417 347 l 417 278 l 347 278 l 347 208 l 417 208 l 417 139 l 486 139 l 486 0 l 417 0 l 417 139 l 347 139 l 347 208 l 278 208 l 278 278 l 139 278 l 139 0 l 0 0 l 0 625 m 69 347 l 417 347 l 417 556 l 69 556 l 69 347 z "},"S":{"ha":556,"x_min":0,"x_max":486,"o":"m 0 556 l 69 556 l 69 625 l 486 625 l 486 556 l 69 556 l 69 347 l 417 347 l 417 278 l 486 278 l 486 69 l 417 69 l 417 0 l 0 0 l 0 69 l 347 69 l 347 278 l 69 278 l 69 347 l 0 347 l 0 556 z "},"T":{"ha":556,"x_min":0,"x_max":486,"o":"m 0 625 l 486 625 l 486 556 l 278 556 l 278 0 l 139 0 l 139 347 l 208 347 l 208 556 l 0 556 l 0 625 z "},"U":{"ha":556,"x_min":0,"x_max":486,"o":"m 0 625 l 69 625 l 69 347 l 139 347 l 139 69 l 347 69 l 347 347 l 417 347 l 417 625 l 486 625 l 486 69 l 417 69 l 417 0 l 69 0 l 69 69 l 0 69 l 0 625 z "},"V":{"ha":556,"x_min":0,"x_max":486,"o":"m 0 625 l 69 625 l 69 347 l 139 347 l 139 139 l 208 139 l 208 69 l 278 69 l 278 139 l 347 139 l 347 347 l 417 347 l 417 625 l 486 625 l 486 208 l 417 208 l 417 139 l 347 139 l 347 69 l 278 69 l 278 0 l 208 0 l 208 69 l 139 69 l 139 139 l 69 139 l 69 208 l 0 208 l 0 625 z "},"W":{"ha":556,"x_min":0,"x_max":486,"o":"m 0 625 l 69 625 l 69 347 l 139 347 l 139 69 l 208 69 l 208 486 l 278 486 l 278 69 l 347 69 l 347 347 l 417 347 l 417 625 l 486 625 l 486 69 l 417 69 l 417 0 l 69 0 l 69 69 l 0 69 l 0 625 z "},"X":{"ha":556,"x_min":0,"x_max":486,"o":"m 0 625 l 69 625 l 69 486 l 139 486 l 139 417 l 208 417 l 208 347 l 278 347 l 278 417 l 347 417 l 347 486 l 417 486 l 417 625 l 486 625 l 486 486 l 417 486 l 417 417 l 347 417 l 347 347 l 278 347 l 278 278 l 347 278 l 347 208 l 417 208 l 417 139 l 486 139 l 486 0 l 347 0 l 347 208 l 278 208 l 278 278 l 208 278 l 208 208 l 139 208 l 139 0 l 0 0 l 0 139 l 69 139 l 69 208 l 139 208 l 139 278 l 208 278 l 208 347 l 139 347 l 139 417 l 69 417 l 69 486 l 0 486 l 0 625 z "},"Y":{"ha":556,"x_min":0,"x_max":486,"o":"m 0 625 l 69 625 l 69 347 l 417 347 l 417 625 l 486 625 l 486 69 l 417 69 l 417 0 l 69 0 l 69 69 l 347 69 l 347 278 l 69 278 l 69 347 l 0 347 l 0 625 z "},"Z":{"ha":556,"x_min":0,"x_max":486,"o":"m 0 625 l 486 625 l 486 486 l 417 486 l 417 417 l 347 417 l 347 347 l 278 347 l 278 278 l 208 278 l 208 208 l 139 208 l 139 69 l 486 69 l 486 0 l 0 0 l 0 139 l 69 139 l 69 208 l 139 208 l 139 278 l 208 278 l 208 347 l 278 347 l 278 417 l 347 417 l 347 556 l 0 556 l 0 625 z "},"[":{"ha":347,"x_min":0,"x_max":278,"o":"m 0 625 l 278 625 l 278 556 l 69 556 l 69 347 l 139 347 l 139 69 l 278 69 l 278 0 l 0 0 l 0 625 z "},"\\":{"ha":347,"x_min":0,"x_max":278,"o":"m 278 0 l 139 0 l 139 139 l 69 139 l 69 417 l 0 417 l 0 556 l 69 556 l 69 417 l 139 417 l 139 278 l 208 278 l 208 139 l 278 139 l 278 0 z "},"]":{"ha":347,"x_min":0,"x_max":278,"o":"m 0 625 l 278 625 l 278 0 l 0 0 l 0 69 l 139 69 l 139 347 l 208 347 l 208 556 l 0 556 l 0 625 z "},"^":{"ha":556,"x_min":0,"x_max":486,"o":"m 0 417 l 69 417 l 69 486 l 139 486 l 139 556 l 208 556 l 208 625 l 278 625 l 278 556 l 347 556 l 347 486 l 417 486 l 417 417 l 486 417 l 486 347 l 417 347 l 417 417 l 347 417 l 347 486 l 278 486 l 278 556 l 208 556 l 208 486 l 139 486 l 139 417 l 69 417 l 69 347 l 0 347 l 0 417 z "},"_":{"ha":556,"x_min":0,"x_max":486,"o":"m 0 69 l 486 69 l 486 0 l 0 0 l 0 69 z "},"`":{"ha":278,"x_min":0,"x_max":208,"o":"m 0 625 l 69 625 l 69 556 l 139 556 l 139 486 l 208 486 l 208 417 l 139 417 l 139 486 l 69 486 l 69 556 l 0 556 l 0 625 z "},"a":{"ha":486,"x_min":0,"x_max":417,"o":"m 0 278 l 69 278 l 69 347 l 347 347 l 347 417 l 69 417 l 69 486 l 347 486 l 347 417 l 417 417 l 417 0 l 69 0 l 69 69 l 0 69 l 0 278 m 69 69 l 278 69 l 278 278 l 69 278 l 69 69 z "},"b":{"ha":486,"x_min":0,"x_max":417,"o":"m 0 625 l 69 625 l 69 486 l 347 486 l 347 417 l 417 417 l 417 69 l 347 69 l 347 0 l 0 0 l 0 625 m 69 347 l 139 347 l 139 69 l 347 69 l 347 417 l 69 417 l 69 347 z "},"c":{"ha":486,"x_min":0,"x_max":417,"o":"m 0 417 l 69 417 l 69 486 l 417 486 l 417 417 l 69 417 l 69 347 l 139 347 l 139 69 l 417 69 l 417 0 l 69 0 l 69 69 l 0 69 l 0 417 z "},"d":{"ha":486,"x_min":0,"x_max":417,"o":"m 0 417 l 69 417 l 69 486 l 347 486 l 347 625 l 417 625 l 417 0 l 69 0 l 69 69 l 0 69 l 0 417 m 69 69 l 278 69 l 278 347 l 347 347 l 347 417 l 69 417 l 69 69 z "},"e":{"ha":486,"x_min":0,"x_max":417,"o":"m 0 417 l 69 417 l 69 486 l 347 486 l 347 417 l 417 417 l 417 139 l 139 139 l 139 69 l 347 69 l 347 0 l 69 0 l 69 69 l 0 69 l 0 417 m 69 347 l 139 347 l 139 208 l 347 208 l 347 417 l 69 417 l 69 347 z "},"f":{"ha":486,"x_min":0,"x_max":417,"o":"m 347 556 l 139 556 l 139 347 l 347 347 l 347 278 l 208 278 l 208 0 l 69 0 l 69 278 l 0 278 l 0 347 l 69 347 l 69 556 l 139 556 l 139 625 l 347 625 l 347 556 l 417 556 l 417 486 l 347 486 l 347 556 z "},"g":{"ha":486,"x_min":0,"x_max":417,"o":"m 0 417 l 69 417 l 69 486 l 347 486 l 347 417 l 417 417 l 417 -69 l 347 -69 l 347 -139 l 69 -139 l 69 -69 l 278 -69 l 278 0 l 69 0 l 69 69 l 0 69 l 0 417 m 69 69 l 278 69 l 278 347 l 347 347 l 347 417 l 69 417 l 69 69 z "},"h":{"ha":486,"x_min":0,"x_max":417,"o":"m 0 625 l 69 625 l 69 486 l 347 486 l 347 417 l 417 417 l 417 0 l 347 0 l 347 417 l 69 417 l 69 347 l 139 347 l 139 0 l 0 0 l 0 625 z "},"i":{"ha":347,"x_min":0,"x_max":278,"o":"m 0 486 l 278 486 l 278 417 l 139 417 l 139 347 l 208 347 l 208 69 l 278 69 l 278 0 l 0 0 l 0 69 l 69 69 l 69 417 l 0 417 l 0 486 m 69 625 l 208 625 l 208 556 l 69 556 l 69 625 z "},"j":{"ha":417,"x_min":0,"x_max":347,"o":"m 69 486 l 347 486 l 347 -69 l 278 -69 l 278 -139 l 69 -139 l 69 -69 l 0 -69 l 0 0 l 69 0 l 69 -69 l 208 -69 l 208 347 l 278 347 l 278 417 l 69 417 l 69 486 m 139 625 l 278 625 l 278 556 l 139 556 l 139 625 z "},"k":{"ha":486,"x_min":0,"x_max":417,"o":"m 0 625 l 69 625 l 69 278 l 278 278 l 278 347 l 347 347 l 347 486 l 417 486 l 417 347 l 347 347 l 347 278 l 278 278 l 278 208 l 347 208 l 347 139 l 417 139 l 417 0 l 347 0 l 347 139 l 278 139 l 278 208 l 139 208 l 139 0 l 0 0 l 0 625 z "},"l":{"ha":347,"x_min":0,"x_max":278,"o":"m 0 625 l 139 625 l 139 347 l 208 347 l 208 69 l 278 69 l 278 0 l 0 0 l 0 69 l 69 69 l 69 556 l 0 556 l 0 625 z "},"m":{"ha":625,"x_min":0,"x_max":556,"o":"m 0 486 l 278 486 l 278 417 l 347 417 l 347 486 l 486 486 l 486 417 l 556 417 l 556 0 l 486 0 l 486 417 l 347 417 l 347 0 l 278 0 l 278 417 l 69 417 l 69 347 l 139 347 l 139 0 l 0 0 l 0 486 z "},"n":{"ha":486,"x_min":0,"x_max":417,"o":"m 0 486 l 347 486 l 347 417 l 417 417 l 417 0 l 347 0 l 347 417 l 69 417 l 69 347 l 139 347 l 139 0 l 0 0 l 0 486 z "},"o":{"ha":486,"x_min":0,"x_max":417,"o":"m 0 417 l 69 417 l 69 486 l 347 486 l 347 417 l 417 417 l 417 69 l 347 69 l 347 0 l 69 0 l 69 69 l 0 69 l 0 417 m 69 347 l 139 347 l 139 69 l 347 69 l 347 417 l 69 417 l 69 347 z "},"p":{"ha":486,"x_min":0,"x_max":417,"o":"m 0 486 l 347 486 l 347 417 l 417 417 l 417 69 l 347 69 l 347 0 l 139 0 l 139 -139 l 0 -139 l 0 486 m 69 347 l 139 347 l 139 69 l 347 69 l 347 417 l 69 417 l 69 347 z "},"q":{"ha":486,"x_min":0,"x_max":417,"o":"m 0 417 l 69 417 l 69 486 l 417 486 l 417 -139 l 278 -139 l 278 0 l 69 0 l 69 69 l 0 69 l 0 417 m 69 69 l 278 69 l 278 347 l 347 347 l 347 417 l 69 417 l 69 69 z "},"r":{"ha":486,"x_min":0,"x_max":417,"o":"m 0 486 l 347 486 l 347 417 l 417 417 l 417 347 l 347 347 l 347 417 l 69 417 l 69 347 l 139 347 l 139 0 l 0 0 l 0 486 z "},"s":{"ha":486,"x_min":0,"x_max":417,"o":"m 0 417 l 69 417 l 69 486 l 417 486 l 417 417 l 69 417 l 69 278 l 347 278 l 347 208 l 417 208 l 417 69 l 347 69 l 347 0 l 0 0 l 0 69 l 278 69 l 278 208 l 69 208 l 69 278 l 0 278 l 0 417 z "},"t":{"ha":486,"x_min":0,"x_max":417,"o":"m 0 417 l 69 417 l 69 625 l 139 625 l 139 417 l 347 417 l 347 347 l 208 347 l 208 69 l 347 69 l 347 139 l 417 139 l 417 69 l 347 69 l 347 0 l 139 0 l 139 69 l 69 69 l 69 347 l 0 347 l 0 417 z "},"u":{"ha":486,"x_min":0,"x_max":417,"o":"m 0 486 l 69 486 l 69 417 l 139 417 l 139 69 l 347 69 l 347 486 l 417 486 l 417 69 l 347 69 l 347 0 l 69 0 l 69 69 l 0 69 l 0 486 z "},"v":{"ha":486,"x_min":0,"x_max":417,"o":"m 0 486 l 69 486 l 69 417 l 139 417 l 139 69 l 278 69 l 278 139 l 347 139 l 347 486 l 417 486 l 417 139 l 347 139 l 347 69 l 278 69 l 278 0 l 139 0 l 139 69 l 69 69 l 69 139 l 0 139 l 0 486 z "},"w":{"ha":625,"x_min":0,"x_max":556,"o":"m 0 486 l 69 486 l 69 417 l 139 417 l 139 69 l 278 69 l 278 417 l 347 417 l 347 69 l 486 69 l 486 486 l 556 486 l 556 69 l 486 69 l 486 0 l 347 0 l 347 69 l 278 69 l 278 0 l 69 0 l 69 69 l 0 69 l 0 486 z "},"x":{"ha":486,"x_min":0,"x_max":417,"o":"m 0 486 l 139 486 l 139 278 l 278 278 l 278 486 l 417 486 l 417 347 l 347 347 l 347 278 l 278 278 l 278 208 l 347 208 l 347 139 l 417 139 l 417 0 l 278 0 l 278 208 l 139 208 l 139 0 l 0 0 l 0 139 l 69 139 l 69 208 l 139 208 l 139 278 l 69 278 l 69 347 l 0 347 l 0 486 z "},"y":{"ha":486,"x_min":0,"x_max":417,"o":"m 0 486 l 69 486 l 69 69 l 278 69 l 278 417 l 347 417 l 347 486 l 417 486 l 417 -69 l 347 -69 l 347 -139 l 69 -139 l 69 -69 l 278 -69 l 278 0 l 69 0 l 69 69 l 0 69 l 0 486 z "},"z":{"ha":486,"x_min":0,"x_max":417,"o":"m 0 486 l 417 486 l 417 347 l 347 347 l 347 278 l 278 278 l 278 208 l 139 208 l 139 69 l 417 69 l 417 0 l 0 0 l 0 139 l 69 139 l 69 208 l 139 208 l 139 278 l 278 278 l 278 417 l 0 417 l 0 486 z "},"{":{"ha":417,"x_min":0,"x_max":347,"o":"m 0 347 l 69 347 l 69 625 l 347 625 l 347 556 l 139 556 l 139 347 l 208 347 l 208 69 l 347 69 l 347 0 l 69 0 l 69 278 l 0 278 l 0 347 z "},"|":{"ha":208,"x_min":0,"x_max":139,"o":"m 0 625 l 69 625 l 69 347 l 139 347 l 139 0 l 0 0 l 0 625 z "},"}":{"ha":417,"x_min":0,"x_max":347,"o":"m 0 625 l 278 625 l 278 347 l 347 347 l 347 278 l 278 278 l 278 0 l 0 0 l 0 69 l 139 69 l 139 347 l 208 347 l 208 556 l 0 556 l 0 625 z "},"~":{"ha":556,"x_min":0,"x_max":486,"o":"m 0 417 l 69 417 l 69 486 l 208 486 l 208 417 l 278 417 l 278 278 l 417 278 l 417 417 l 486 417 l 486 278 l 417 278 l 417 208 l 278 208 l 278 278 l 208 278 l 208 417 l 69 417 l 69 278 l 0 278 l 0 417 z "},"€":{"ha":625,"x_min":0,"x_max":556,"o":"m 0 417 l 69 417 l 69 556 l 139 556 l 139 625 l 556 625 l 556 556 l 139 556 l 139 417 l 486 417 l 486 347 l 208 347 l 208 278 l 486 278 l 486 208 l 208 208 l 208 69 l 556 69 l 556 0 l 139 0 l 139 69 l 69 69 l 69 208 l 0 208 l 0 278 l 69 278 l 69 347 l 0 347 l 0 417 z "},"‚":{"ha":208,"x_min":0,"x_max":139,"o":"m 0 69 l 139 69 l 139 -139 l 69 -139 l 69 0 l 0 0 l 0 69 z "},"ƒ":{"ha":556,"x_min":0,"x_max":486,"o":"m 69 347 l 139 347 l 139 556 l 208 556 l 208 625 l 417 625 l 417 556 l 486 556 l 486 486 l 417 486 l 417 556 l 208 556 l 208 347 l 417 347 l 417 278 l 278 278 l 278 -69 l 208 -69 l 208 -139 l 0 -139 l 0 -69 l 139 -69 l 139 278 l 69 278 l 69 347 z "},"„":{"ha":417,"x_min":0,"x_max":347,"o":"m 0 69 l 139 69 l 139 -139 l 69 -139 l 69 0 l 0 0 l 0 69 m 208 69 l 347 69 l 347 -139 l 278 -139 l 278 0 l 208 0 l 208 69 z "},"…":{"ha":417,"x_min":0,"x_max":347,"o":"m 0 69 l 69 69 l 69 0 l 0 0 l 0 69 m 278 69 l 347 69 l 347 0 l 278 0 l 278 69 m 139 69 l 208 69 l 208 0 l 139 0 l 139 69 z "},"†":{"ha":486,"x_min":0,"x_max":417,"o":"m 0 486 l 139 486 l 139 625 l 208 625 l 208 486 l 417 486 l 417 417 l 208 417 l 208 347 l 278 347 l 278 0 l 139 0 l 139 417 l 0 417 l 0 486 z "},"‡":{"ha":486,"x_min":0,"x_max":417,"o":"m 0 486 l 139 486 l 139 625 l 208 625 l 208 486 l 417 486 l 417 417 l 208 417 l 208 347 l 278 347 l 278 208 l 417 208 l 417 139 l 278 139 l 278 0 l 139 0 l 139 139 l 0 139 l 0 208 l 139 208 l 139 417 l 0 417 l 0 486 z "},"ˆ":{"ha":417,"x_min":0,"x_max":347,"o":"m 0 486 l 69 486 l 69 556 l 139 556 l 139 625 l 208 625 l 208 556 l 278 556 l 278 486 l 347 486 l 347 417 l 278 417 l 278 486 l 208 486 l 208 556 l 139 556 l 139 486 l 69 486 l 69 417 l 0 417 l 0 486 z "},"‰":{"ha":764,"x_min":0,"x_max":694,"o":"m 69 139 l 139 139 l 139 278 l 208 278 l 208 417 l 278 417 l 278 556 l 347 556 l 347 278 l 278 278 l 278 139 l 208 139 l 208 0 l 69 0 l 69 139 m 347 208 l 486 208 l 486 0 l 347 0 l 347 208 m 556 208 l 694 208 l 694 0 l 556 0 l 556 208 m 0 625 l 139 625 l 139 417 l 0 417 l 0 625 z "},"Š":{"ha":556,"x_min":0,"x_max":486,"o":"m 0 556 l 69 556 l 69 625 l 486 625 l 486 556 l 69 556 l 69 347 l 417 347 l 417 278 l 486 278 l 486 69 l 417 69 l 417 0 l 0 0 l 0 69 l 347 69 l 347 278 l 69 278 l 69 347 l 0 347 l 0 556 m 69 833 l 139 833 l 139 764 l 347 764 l 347 833 l 417 833 l 417 764 l 347 764 l 347 694 l 139 694 l 139 764 l 69 764 l 69 833 z "},"‹":{"ha":347,"x_min":0,"x_max":278,"o":"m 0 347 l 69 347 l 69 417 l 139 417 l 139 486 l 208 486 l 208 556 l 278 556 l 278 486 l 208 486 l 208 417 l 139 417 l 139 208 l 208 208 l 208 139 l 278 139 l 278 0 l 208 0 l 208 69 l 139 69 l 139 139 l 69 139 l 69 208 l 0 208 l 0 347 z "},"Œ":{"ha":694,"x_min":0,"x_max":625,"o":"m 0 556 l 69 556 l 69 625 l 625 625 l 625 556 l 347 556 l 347 347 l 556 347 l 556 278 l 417 278 l 417 69 l 625 69 l 625 0 l 69 0 l 69 69 l 0 69 l 0 556 m 69 347 l 139 347 l 139 69 l 278 69 l 278 556 l 69 556 l 69 347 z "},"Ž":{"ha":556,"x_min":0,"x_max":486,"o":"m 0 625 l 486 625 l 486 486 l 417 486 l 417 417 l 347 417 l 347 347 l 278 347 l 278 278 l 208 278 l 208 208 l 139 208 l 139 69 l 486 69 l 486 0 l 0 0 l 0 139 l 69 139 l 69 208 l 139 208 l 139 278 l 208 278 l 208 347 l 278 347 l 278 417 l 347 417 l 347 556 l 0 556 l 0 625 m 69 833 l 139 833 l 139 764 l 347 764 l 347 833 l 417 833 l 417 764 l 347 764 l 347 694 l 139 694 l 139 764 l 69 764 l 69 833 z "},"‘":{"ha":208,"x_min":0,"x_max":139,"o":"m 0 764 l 69 764 l 69 625 l 139 625 l 139 556 l 0 556 l 0 764 z "},"’":{"ha":208,"x_min":0,"x_max":139,"o":"m 0 625 l 139 625 l 139 417 l 69 417 l 69 556 l 0 556 l 0 625 z "},"“":{"ha":417,"x_min":0,"x_max":347,"o":"m 0 764 l 69 764 l 69 625 l 139 625 l 139 556 l 0 556 l 0 764 m 208 764 l 278 764 l 278 625 l 347 625 l 347 556 l 208 556 l 208 764 z "},"”":{"ha":417,"x_min":0,"x_max":347,"o":"m 0 625 l 139 625 l 139 417 l 69 417 l 69 556 l 0 556 l 0 625 m 208 625 l 347 625 l 347 417 l 278 417 l 278 556 l 208 556 l 208 625 z "},"•":{"ha":347,"x_min":0,"x_max":278,"o":"m 0 417 l 69 417 l 69 486 l 208 486 l 208 417 l 278 417 l 278 278 l 208 278 l 208 208 l 69 208 l 69 278 l 0 278 l 0 417 z "},"–":{"ha":556,"x_min":0,"x_max":486,"o":"m 0 347 l 486 347 l 486 278 l 0 278 l 0 347 z "},"—":{"ha":625,"x_min":0,"x_max":556,"o":"m 0 347 l 556 347 l 556 278 l 0 278 l 0 347 z "},"˜":{"ha":556,"x_min":0,"x_max":486,"o":"m 0 556 l 69 556 l 69 625 l 208 625 l 208 556 l 278 556 l 278 486 l 417 486 l 417 625 l 486 625 l 486 486 l 417 486 l 417 417 l 278 417 l 278 486 l 208 486 l 208 556 l 69 556 l 69 417 l 0 417 l 0 556 z "},"™":{"ha":764,"x_min":0,"x_max":694,"o":"m 0 417 l 417 417 l 417 347 l 486 347 l 486 278 l 556 278 l 556 347 l 625 347 l 625 417 l 694 417 l 694 0 l 556 0 l 556 139 l 625 139 l 625 278 l 556 278 l 556 208 l 486 208 l 486 278 l 417 278 l 417 139 l 486 139 l 486 0 l 347 0 l 347 347 l 208 347 l 208 139 l 278 139 l 278 0 l 139 0 l 139 347 l 0 347 l 0 417 z "},"š":{"ha":486,"x_min":0,"x_max":417,"o":"m 0 417 l 69 417 l 69 486 l 417 486 l 417 417 l 69 417 l 69 278 l 347 278 l 347 208 l 417 208 l 417 69 l 347 69 l 347 0 l 0 0 l 0 69 l 278 69 l 278 208 l 69 208 l 69 278 l 0 278 l 0 417 m 69 694 l 139 694 l 139 625 l 278 625 l 278 694 l 347 694 l 347 625 l 278 625 l 278 556 l 139 556 l 139 625 l 69 625 l 69 694 z "},"›":{"ha":347,"x_min":0,"x_max":278,"o":"m 0 556 l 69 556 l 69 486 l 139 486 l 139 417 l 208 417 l 208 347 l 278 347 l 278 208 l 208 208 l 208 139 l 139 139 l 139 69 l 69 69 l 69 0 l 0 0 l 0 139 l 69 139 l 69 208 l 139 208 l 139 417 l 69 417 l 69 486 l 0 486 l 0 556 z "},"œ":{"ha":694,"x_min":0,"x_max":625,"o":"m 0 417 l 69 417 l 69 486 l 278 486 l 278 417 l 347 417 l 347 486 l 556 486 l 556 417 l 625 417 l 625 139 l 347 139 l 347 69 l 556 69 l 556 0 l 347 0 l 347 69 l 278 69 l 278 0 l 69 0 l 69 69 l 0 69 l 0 417 m 69 347 l 139 347 l 139 69 l 278 69 l 278 417 l 69 417 l 69 347 m 347 347 l 417 347 l 417 208 l 556 208 l 556 417 l 347 417 l 347 347 z "},"ž":{"ha":486,"x_min":0,"x_max":417,"o":"m 0 486 l 417 486 l 417 347 l 347 347 l 347 278 l 278 278 l 278 208 l 139 208 l 139 69 l 417 69 l 417 0 l 0 0 l 0 139 l 69 139 l 69 208 l 139 208 l 139 278 l 278 278 l 278 417 l 0 417 l 0 486 m 69 694 l 139 694 l 139 625 l 278 625 l 278 694 l 347 694 l 347 625 l 278 625 l 278 556 l 139 556 l 139 625 l 69 625 l 69 694 z "},"Ÿ":{"ha":556,"x_min":0,"x_max":486,"o":"m 0 625 l 69 625 l 69 347 l 417 347 l 417 625 l 486 625 l 486 69 l 417 69 l 417 0 l 69 0 l 69 69 l 347 69 l 347 278 l 69 278 l 69 347 l 0 347 l 0 625 m 347 764 l 417 764 l 417 694 l 347 694 l 347 764 m 69 764 l 139 764 l 139 694 l 69 694 l 69 764 z "},"¡":{"ha":208,"x_min":0,"x_max":139,"o":"m 0 486 l 69 486 l 69 347 l 139 347 l 139 0 l 0 0 l 0 486 m 0 625 l 139 625 l 139 556 l 0 556 l 0 625 z "},"¢":{"ha":486,"x_min":0,"x_max":417,"o":"m 0 417 l 69 417 l 69 486 l 208 486 l 208 556 l 278 556 l 278 486 l 417 486 l 417 417 l 278 417 l 278 69 l 417 69 l 417 0 l 278 0 l 278 -69 l 208 -69 l 208 0 l 69 0 l 69 69 l 0 69 l 0 417 m 208 417 l 69 417 l 69 347 l 139 347 l 139 69 l 208 69 l 208 417 z "},"£":{"ha":486,"x_min":0,"x_max":417,"o":"m 0 347 l 69 347 l 69 556 l 139 556 l 139 625 l 347 625 l 347 556 l 417 556 l 417 486 l 347 486 l 347 556 l 139 556 l 139 347 l 347 347 l 347 278 l 208 278 l 208 69 l 417 69 l 417 0 l 0 0 l 0 69 l 69 69 l 69 278 l 0 278 l 0 347 z "},"¤":{"ha":417,"x_min":0,"x_max":347,"o":"m 0 486 l 69 486 l 69 417 l 278 417 l 278 486 l 347 486 l 347 417 l 278 417 l 278 208 l 347 208 l 347 139 l 278 139 l 278 208 l 69 208 l 69 139 l 0 139 l 0 208 l 69 208 l 69 417 l 0 417 l 0 486 m 139 278 l 208 278 l 208 347 l 139 347 l 139 278 z "},"¥":{"ha":556,"x_min":0,"x_max":486,"o":"m 0 625 l 69 625 l 69 486 l 139 486 l 139 417 l 208 417 l 208 347 l 278 347 l 278 417 l 347 417 l 347 486 l 417 486 l 417 625 l 486 625 l 486 486 l 417 486 l 417 417 l 347 417 l 347 347 l 278 347 l 278 278 l 417 278 l 417 208 l 278 208 l 278 139 l 417 139 l 417 69 l 278 69 l 278 0 l 208 0 l 208 69 l 69 69 l 69 139 l 208 139 l 208 208 l 69 208 l 69 278 l 208 278 l 208 347 l 139 347 l 139 417 l 69 417 l 69 486 l 0 486 l 0 625 z "},"¦":{"ha":208,"x_min":0,"x_max":139,"o":"m 0 278 l 139 278 l 139 0 l 0 0 l 0 278 m 0 625 l 69 625 l 69 347 l 0 347 l 0 625 z "},"§":{"ha":486,"x_min":0,"x_max":417,"o":"m 0 625 l 417 625 l 417 556 l 69 556 l 69 417 l 417 417 l 417 0 l 0 0 l 0 69 l 278 69 l 278 208 l 0 208 l 0 625 m 69 278 l 347 278 l 347 347 l 69 347 l 69 278 z "},"¨":{"ha":417,"x_min":0,"x_max":347,"o":"m 0 625 l 139 625 l 139 556 l 0 556 l 0 625 m 208 625 l 347 625 l 347 556 l 208 556 l 208 625 z "},"©":{"ha":694,"x_min":0,"x_max":625,"o":"m 0 556 l 69 556 l 69 625 l 556 625 l 556 556 l 625 556 l 625 69 l 556 69 l 556 0 l 69 0 l 69 69 l 0 69 l 0 556 m 69 347 l 139 347 l 139 69 l 486 69 l 486 347 l 556 347 l 556 556 l 69 556 l 69 347 m 208 486 l 417 486 l 417 417 l 278 417 l 278 208 l 417 208 l 417 139 l 208 139 l 208 486 z "},"ª":{"ha":278,"x_min":0,"x_max":208,"o":"m 0 625 l 208 625 l 208 278 l 0 278 l 0 486 l 139 486 l 139 556 l 0 556 l 0 625 m 69 347 l 139 347 l 139 417 l 69 417 l 69 347 z "},"«":{"ha":556,"x_min":0,"x_max":486,"o":"m 0 347 l 69 347 l 69 417 l 139 417 l 139 486 l 208 486 l 208 556 l 278 556 l 278 486 l 208 486 l 208 417 l 139 417 l 139 208 l 208 208 l 208 347 l 278 347 l 278 417 l 347 417 l 347 486 l 417 486 l 417 556 l 486 556 l 486 486 l 417 486 l 417 417 l 347 417 l 347 208 l 417 208 l 417 139 l 486 139 l 486 0 l 417 0 l 417 69 l 347 69 l 347 139 l 278 139 l 278 0 l 208 0 l 208 69 l 139 69 l 139 139 l 69 139 l 69 208 l 0 208 l 0 347 m 208 139 l 278 139 l 278 208 l 208 208 l 208 139 z "},"¬":{"ha":556,"x_min":0,"x_max":486,"o":"m 0 625 l 486 625 l 486 417 l 417 417 l 417 556 l 0 556 l 0 625 z "},"­":{"ha":486,"x_min":0,"x_max":417,"o":"m 0 347 l 417 347 l 417 278 l 0 278 l 0 347 z "},"®":{"ha":694,"x_min":0,"x_max":625,"o":"m 0 556 l 69 556 l 69 625 l 556 625 l 556 556 l 625 556 l 625 69 l 556 69 l 556 0 l 69 0 l 69 69 l 0 69 l 0 556 m 69 347 l 139 347 l 139 69 l 486 69 l 486 347 l 556 347 l 556 556 l 69 556 l 69 347 m 208 486 l 417 486 l 417 347 l 347 347 l 347 278 l 417 278 l 417 139 l 347 139 l 347 278 l 278 278 l 278 139 l 208 139 l 208 486 m 278 347 l 347 347 l 347 417 l 278 417 l 278 347 z "},"°":{"ha":347,"x_min":0,"x_max":278,"o":"m 0 556 l 69 556 l 69 625 l 208 625 l 208 556 l 278 556 l 278 417 l 208 417 l 208 347 l 69 347 l 69 417 l 0 417 l 0 556 m 69 417 l 208 417 l 208 556 l 69 556 l 69 417 z "},"±":{"ha":556,"x_min":0,"x_max":486,"o":"m 0 417 l 208 417 l 208 625 l 278 625 l 278 417 l 486 417 l 486 347 l 347 347 l 347 139 l 208 139 l 208 347 l 0 347 l 0 417 m 0 69 l 486 69 l 486 0 l 0 0 l 0 69 z "},"²":{"ha":347,"x_min":0,"x_max":278,"o":"m 0 556 l 69 556 l 69 625 l 208 625 l 208 556 l 278 556 l 278 486 l 208 486 l 208 417 l 139 417 l 139 347 l 278 347 l 278 278 l 0 278 l 0 347 l 69 347 l 69 417 l 139 417 l 139 486 l 208 486 l 208 556 l 69 556 l 69 486 l 0 486 l 0 556 z "},"³":{"ha":347,"x_min":0,"x_max":278,"o":"m 69 486 l 208 486 l 208 556 l 0 556 l 0 625 l 208 625 l 208 556 l 278 556 l 278 486 l 208 486 l 208 417 l 278 417 l 278 347 l 208 347 l 208 278 l 0 278 l 0 347 l 208 347 l 208 417 l 69 417 l 69 486 z "},"´":{"ha":278,"x_min":0,"x_max":208,"o":"m 0 486 l 69 486 l 69 556 l 139 556 l 139 625 l 208 625 l 208 556 l 139 556 l 139 486 l 69 486 l 69 417 l 0 417 l 0 486 z "},"µ":{"ha":556,"x_min":0,"x_max":486,"o":"m 0 486 l 69 486 l 69 347 l 139 347 l 139 208 l 208 208 l 208 139 l 347 139 l 347 208 l 417 208 l 417 486 l 486 486 l 486 0 l 417 0 l 417 139 l 347 139 l 347 69 l 208 69 l 208 139 l 139 139 l 139 -69 l 0 -69 l 0 486 z "},"¶":{"ha":556,"x_min":0,"x_max":486,"o":"m 0 556 l 69 556 l 69 625 l 486 625 l 486 556 l 417 556 l 417 0 l 347 0 l 347 556 l 208 556 l 208 347 l 278 347 l 278 0 l 139 0 l 139 347 l 69 347 l 69 417 l 0 417 l 0 556 z "},"·":{"ha":208,"x_min":0,"x_max":139,"o":"m 0 347 l 139 347 l 139 278 l 0 278 l 0 347 z "},"¸":{"ha":278,"x_min":0,"x_max":208,"o":"m 69 0 l 139 0 l 139 -69 l 208 -69 l 208 -139 l 139 -139 l 139 -208 l 0 -208 l 0 -139 l 139 -139 l 139 -69 l 69 -69 l 69 0 z "},"¹":{"ha":278,"x_min":0,"x_max":208,"o":"m 0 556 l 69 556 l 69 625 l 139 625 l 139 347 l 208 347 l 208 278 l 0 278 l 0 347 l 69 347 l 69 486 l 0 486 l 0 556 z "},"º":{"ha":347,"x_min":0,"x_max":278,"o":"m 0 556 l 69 556 l 69 625 l 208 625 l 208 556 l 278 556 l 278 347 l 208 347 l 208 278 l 69 278 l 69 347 l 0 347 l 0 556 m 69 347 l 208 347 l 208 556 l 69 556 l 69 347 z "},"»":{"ha":556,"x_min":0,"x_max":486,"o":"m 0 556 l 69 556 l 69 486 l 139 486 l 139 417 l 208 417 l 208 347 l 278 347 l 278 208 l 347 208 l 347 417 l 278 417 l 278 486 l 208 486 l 208 556 l 278 556 l 278 486 l 347 486 l 347 417 l 417 417 l 417 347 l 486 347 l 486 208 l 417 208 l 417 139 l 347 139 l 347 69 l 278 69 l 278 0 l 208 0 l 208 139 l 139 139 l 139 69 l 69 69 l 69 0 l 0 0 l 0 139 l 69 139 l 69 208 l 139 208 l 139 417 l 69 417 l 69 486 l 0 486 l 0 556 m 208 139 l 278 139 l 278 208 l 208 208 l 208 139 z "},"¼":{"ha":833,"x_min":0,"x_max":764,"o":"m 208 139 l 278 139 l 278 278 l 347 278 l 347 417 l 417 417 l 417 556 l 486 556 l 486 278 l 417 278 l 417 139 l 347 139 l 347 0 l 208 0 l 208 139 m 556 347 l 625 347 l 625 208 l 694 208 l 694 347 l 764 347 l 764 0 l 694 0 l 694 139 l 556 139 l 556 347 m 0 625 l 139 625 l 139 347 l 208 347 l 208 278 l 0 278 l 0 347 l 69 347 l 69 556 l 0 556 l 0 625 z "},"½":{"ha":833,"x_min":0,"x_max":764,"o":"m 208 139 l 278 139 l 278 278 l 347 278 l 347 417 l 417 417 l 417 556 l 486 556 l 486 278 l 417 278 l 417 139 l 347 139 l 347 0 l 208 0 l 208 139 m 556 208 l 694 208 l 694 278 l 556 278 l 556 347 l 764 347 l 764 139 l 625 139 l 625 69 l 764 69 l 764 0 l 556 0 l 556 208 m 0 625 l 139 625 l 139 347 l 208 347 l 208 278 l 0 278 l 0 347 l 69 347 l 69 556 l 0 556 l 0 625 z "},"¾":{"ha":833,"x_min":0,"x_max":764,"o":"m 208 139 l 278 139 l 278 278 l 347 278 l 347 417 l 417 417 l 417 556 l 486 556 l 486 278 l 417 278 l 417 139 l 347 139 l 347 0 l 208 0 l 208 139 m 69 486 l 139 486 l 139 556 l 0 556 l 0 625 l 208 625 l 208 278 l 0 278 l 0 347 l 139 347 l 139 417 l 69 417 l 69 486 m 556 347 l 625 347 l 625 208 l 694 208 l 694 347 l 764 347 l 764 0 l 694 0 l 694 139 l 556 139 l 556 347 z "},"¿":{"ha":556,"x_min":0,"x_max":486,"o":"m 0 278 l 69 278 l 69 347 l 208 347 l 208 486 l 278 486 l 278 278 l 139 278 l 139 69 l 417 69 l 417 139 l 486 139 l 486 69 l 417 69 l 417 0 l 69 0 l 69 69 l 0 69 l 0 278 m 208 625 l 278 625 l 278 556 l 208 556 l 208 625 z "},"À":{"ha":556,"x_min":0,"x_max":486,"o":"m 0 556 l 69 556 l 69 625 l 417 625 l 417 556 l 486 556 l 486 0 l 347 0 l 347 278 l 139 278 l 139 0 l 0 0 l 0 556 m 69 347 l 417 347 l 417 556 l 69 556 l 69 347 m 139 833 l 208 833 l 208 764 l 278 764 l 278 694 l 208 694 l 208 764 l 139 764 l 139 833 z "},"Á":{"ha":556,"x_min":0,"x_max":486,"o":"m 0 556 l 69 556 l 69 625 l 417 625 l 417 556 l 486 556 l 486 0 l 347 0 l 347 278 l 139 278 l 139 0 l 0 0 l 0 556 m 69 347 l 417 347 l 417 556 l 69 556 l 69 347 m 208 764 l 278 764 l 278 833 l 347 833 l 347 764 l 278 764 l 278 694 l 208 694 l 208 764 z "},"Â":{"ha":556,"x_min":0,"x_max":486,"o":"m 0 556 l 69 556 l 69 625 l 417 625 l 417 556 l 486 556 l 486 0 l 347 0 l 347 278 l 139 278 l 139 0 l 0 0 l 0 556 m 69 347 l 417 347 l 417 556 l 69 556 l 69 347 m 278 833 l 347 833 l 347 764 l 417 764 l 417 694 l 347 694 l 347 764 l 278 764 l 278 833 m 69 764 l 139 764 l 139 833 l 208 833 l 208 764 l 139 764 l 139 694 l 69 694 l 69 764 z "},"Ã":{"ha":556,"x_min":0,"x_max":486,"o":"m 0 556 l 69 556 l 69 625 l 417 625 l 417 556 l 486 556 l 486 0 l 347 0 l 347 278 l 139 278 l 139 0 l 0 0 l 0 556 m 69 347 l 417 347 l 417 556 l 69 556 l 69 347 m 139 764 l 208 764 l 208 833 l 278 833 l 278 764 l 347 764 l 347 833 l 417 833 l 417 764 l 347 764 l 347 694 l 278 694 l 278 764 l 208 764 l 208 694 l 139 694 l 139 764 z "},"Ä":{"ha":556,"x_min":0,"x_max":486,"o":"m 0 556 l 69 556 l 69 625 l 417 625 l 417 556 l 486 556 l 486 0 l 347 0 l 347 278 l 139 278 l 139 0 l 0 0 l 0 556 m 69 347 l 417 347 l 417 556 l 69 556 l 69 347 m 347 764 l 417 764 l 417 694 l 347 694 l 347 764 m 69 764 l 139 764 l 139 694 l 69 694 l 69 764 z "},"Å":{"ha":556,"x_min":0,"x_max":486,"o":"m 139 764 l 208 764 l 208 833 l 278 833 l 278 764 l 347 764 l 347 694 l 278 694 l 278 625 l 417 625 l 417 556 l 486 556 l 486 0 l 347 0 l 347 278 l 139 278 l 139 0 l 0 0 l 0 556 l 69 556 l 69 625 l 208 625 l 208 694 l 139 694 l 139 764 m 69 347 l 417 347 l 417 556 l 69 556 l 69 347 m 208 694 l 278 694 l 278 764 l 208 764 l 208 694 z "},"Æ":{"ha":694,"x_min":0,"x_max":625,"o":"m 0 556 l 69 556 l 69 625 l 625 625 l 625 556 l 347 556 l 347 347 l 556 347 l 556 278 l 417 278 l 417 69 l 625 69 l 625 0 l 278 0 l 278 278 l 139 278 l 139 0 l 0 0 l 0 556 m 278 556 l 69 556 l 69 347 l 278 347 l 278 556 z "},"Ç":{"ha":556,"x_min":0,"x_max":486,"o":"m 0 556 l 69 556 l 69 625 l 486 625 l 486 556 l 69 556 l 69 347 l 139 347 l 139 69 l 486 69 l 486 0 l 278 0 l 278 -69 l 347 -69 l 347 -139 l 278 -139 l 278 -208 l 139 -208 l 139 -139 l 278 -139 l 278 -69 l 208 -69 l 208 0 l 69 0 l 69 69 l 0 69 l 0 556 z "},"È":{"ha":556,"x_min":0,"x_max":486,"o":"m 0 625 l 486 625 l 486 556 l 69 556 l 69 347 l 417 347 l 417 278 l 139 278 l 139 69 l 486 69 l 486 0 l 0 0 l 0 625 m 139 833 l 208 833 l 208 764 l 278 764 l 278 694 l 208 694 l 208 764 l 139 764 l 139 833 z "},"É":{"ha":556,"x_min":0,"x_max":486,"o":"m 0 625 l 486 625 l 486 556 l 69 556 l 69 347 l 417 347 l 417 278 l 139 278 l 139 69 l 486 69 l 486 0 l 0 0 l 0 625 m 208 764 l 278 764 l 278 833 l 347 833 l 347 764 l 278 764 l 278 694 l 208 694 l 208 764 z "},"Ê":{"ha":556,"x_min":0,"x_max":486,"o":"m 0 625 l 486 625 l 486 556 l 69 556 l 69 347 l 417 347 l 417 278 l 139 278 l 139 69 l 486 69 l 486 0 l 0 0 l 0 625 m 69 764 l 139 764 l 139 833 l 208 833 l 208 764 l 139 764 l 139 694 l 69 694 l 69 764 m 278 833 l 347 833 l 347 764 l 417 764 l 417 694 l 347 694 l 347 764 l 278 764 l 278 833 z "},"Ë":{"ha":556,"x_min":0,"x_max":486,"o":"m 0 625 l 486 625 l 486 556 l 69 556 l 69 347 l 417 347 l 417 278 l 139 278 l 139 69 l 486 69 l 486 0 l 0 0 l 0 625 m 69 764 l 139 764 l 139 694 l 69 694 l 69 764 m 347 764 l 417 764 l 417 694 l 347 694 l 347 764 z "},"Ì":{"ha":347,"x_min":0,"x_max":278,"o":"m 0 625 l 278 625 l 278 556 l 208 556 l 208 69 l 278 69 l 278 0 l 0 0 l 0 69 l 69 69 l 69 347 l 139 347 l 139 556 l 0 556 l 0 625 m 0 833 l 69 833 l 69 764 l 139 764 l 139 694 l 69 694 l 69 764 l 0 764 l 0 833 z "},"Í":{"ha":347,"x_min":0,"x_max":278,"o":"m 0 625 l 278 625 l 278 556 l 208 556 l 208 69 l 278 69 l 278 0 l 0 0 l 0 69 l 69 69 l 69 347 l 139 347 l 139 556 l 0 556 l 0 625 m 139 764 l 208 764 l 208 833 l 278 833 l 278 764 l 208 764 l 208 694 l 139 694 l 139 764 z "},"Î":{"ha":486,"x_min":0,"x_max":417,"o":"m 69 625 l 347 625 l 347 556 l 278 556 l 278 69 l 347 69 l 347 0 l 69 0 l 69 69 l 139 69 l 139 347 l 208 347 l 208 556 l 69 556 l 69 625 m 0 764 l 69 764 l 69 833 l 139 833 l 139 764 l 69 764 l 69 694 l 0 694 l 0 764 m 278 833 l 347 833 l 347 764 l 417 764 l 417 694 l 347 694 l 347 764 l 278 764 l 278 833 z "},"Ï":{"ha":347,"x_min":0,"x_max":278,"o":"m 0 625 l 278 625 l 278 556 l 208 556 l 208 69 l 278 69 l 278 0 l 0 0 l 0 69 l 69 69 l 69 347 l 139 347 l 139 556 l 0 556 l 0 625 m 208 764 l 278 764 l 278 694 l 208 694 l 208 764 m 0 764 l 69 764 l 69 694 l 0 694 l 0 764 z "},"Ð":{"ha":625,"x_min":0,"x_max":556,"o":"m 0 347 l 69 347 l 69 625 l 486 625 l 486 556 l 556 556 l 556 69 l 486 69 l 486 0 l 69 0 l 69 278 l 0 278 l 0 347 m 139 347 l 347 347 l 347 278 l 208 278 l 208 69 l 486 69 l 486 556 l 139 556 l 139 347 z "},"Ñ":{"ha":556,"x_min":0,"x_max":486,"o":"m 0 625 l 69 625 l 69 486 l 139 486 l 139 417 l 208 417 l 208 347 l 278 347 l 278 278 l 347 278 l 347 208 l 417 208 l 417 625 l 486 625 l 486 0 l 417 0 l 417 139 l 347 139 l 347 208 l 278 208 l 278 278 l 208 278 l 208 347 l 139 347 l 139 0 l 0 0 l 0 625 m 139 764 l 208 764 l 208 833 l 278 833 l 278 764 l 347 764 l 347 833 l 417 833 l 417 764 l 347 764 l 347 694 l 278 694 l 278 764 l 208 764 l 208 694 l 139 694 l 139 764 z "},"Ò":{"ha":556,"x_min":0,"x_max":486,"o":"m 0 556 l 69 556 l 69 625 l 417 625 l 417 556 l 486 556 l 486 69 l 417 69 l 417 0 l 69 0 l 69 69 l 0 69 l 0 556 m 69 347 l 139 347 l 139 69 l 347 69 l 347 347 l 417 347 l 417 556 l 69 556 l 69 347 m 139 833 l 208 833 l 208 764 l 278 764 l 278 694 l 208 694 l 208 764 l 139 764 l 139 833 z "},"Ó":{"ha":556,"x_min":0,"x_max":486,"o":"m 0 556 l 69 556 l 69 625 l 417 625 l 417 556 l 486 556 l 486 69 l 417 69 l 417 0 l 69 0 l 69 69 l 0 69 l 0 556 m 69 347 l 139 347 l 139 69 l 347 69 l 347 347 l 417 347 l 417 556 l 69 556 l 69 347 m 208 764 l 278 764 l 278 833 l 347 833 l 347 764 l 278 764 l 278 694 l 208 694 l 208 764 z "},"Ô":{"ha":556,"x_min":0,"x_max":486,"o":"m 0 556 l 69 556 l 69 625 l 417 625 l 417 556 l 486 556 l 486 69 l 417 69 l 417 0 l 69 0 l 69 69 l 0 69 l 0 556 m 69 347 l 139 347 l 139 69 l 347 69 l 347 347 l 417 347 l 417 556 l 69 556 l 69 347 m 278 833 l 347 833 l 347 764 l 417 764 l 417 694 l 347 694 l 347 764 l 278 764 l 278 833 m 69 764 l 139 764 l 139 833 l 208 833 l 208 764 l 139 764 l 139 694 l 69 694 l 69 764 z "},"Õ":{"ha":556,"x_min":0,"x_max":486,"o":"m 0 556 l 69 556 l 69 625 l 417 625 l 417 556 l 486 556 l 486 69 l 417 69 l 417 0 l 69 0 l 69 69 l 0 69 l 0 556 m 69 347 l 139 347 l 139 69 l 347 69 l 347 347 l 417 347 l 417 556 l 69 556 l 69 347 m 139 764 l 208 764 l 208 833 l 278 833 l 278 764 l 347 764 l 347 833 l 417 833 l 417 764 l 347 764 l 347 694 l 278 694 l 278 764 l 208 764 l 208 694 l 139 694 l 139 764 z "},"Ö":{"ha":556,"x_min":0,"x_max":486,"o":"m 0 556 l 69 556 l 69 625 l 417 625 l 417 556 l 486 556 l 486 69 l 417 69 l 417 0 l 69 0 l 69 69 l 0 69 l 0 556 m 69 347 l 139 347 l 139 69 l 347 69 l 347 347 l 417 347 l 417 556 l 69 556 l 69 347 m 347 764 l 417 764 l 417 694 l 347 694 l 347 764 m 69 764 l 139 764 l 139 694 l 69 694 l 69 764 z "},"×":{"ha":417,"x_min":0,"x_max":347,"o":"m 0 556 l 69 556 l 69 486 l 139 486 l 139 417 l 208 417 l 208 486 l 278 486 l 278 556 l 347 556 l 347 486 l 278 486 l 278 417 l 208 417 l 208 347 l 278 347 l 278 278 l 347 278 l 347 208 l 208 208 l 208 278 l 139 278 l 139 208 l 0 208 l 0 278 l 69 278 l 69 347 l 139 347 l 139 417 l 69 417 l 69 486 l 0 486 l 0 556 z "},"Ø":{"ha":694,"x_min":0,"x_max":625,"o":"m 0 69 l 69 69 l 69 556 l 139 556 l 139 625 l 486 625 l 486 556 l 556 556 l 556 625 l 625 625 l 625 556 l 556 556 l 556 69 l 486 69 l 486 0 l 139 0 l 139 69 l 69 69 l 69 0 l 0 0 l 0 69 m 486 417 l 417 417 l 417 347 l 347 347 l 347 278 l 278 278 l 278 208 l 208 208 l 208 69 l 486 69 l 486 417 m 139 556 l 139 208 l 208 208 l 208 278 l 278 278 l 278 347 l 347 347 l 347 417 l 417 417 l 417 556 l 139 556 z "},"Ù":{"ha":556,"x_min":0,"x_max":486,"o":"m 0 625 l 69 625 l 69 347 l 139 347 l 139 69 l 347 69 l 347 347 l 417 347 l 417 625 l 486 625 l 486 69 l 417 69 l 417 0 l 69 0 l 69 69 l 0 69 l 0 625 m 139 833 l 208 833 l 208 764 l 278 764 l 278 694 l 208 694 l 208 764 l 139 764 l 139 833 z "},"Ú":{"ha":556,"x_min":0,"x_max":486,"o":"m 0 625 l 69 625 l 69 347 l 139 347 l 139 69 l 347 69 l 347 347 l 417 347 l 417 625 l 486 625 l 486 69 l 417 69 l 417 0 l 69 0 l 69 69 l 0 69 l 0 625 m 208 764 l 278 764 l 278 833 l 347 833 l 347 764 l 278 764 l 278 694 l 208 694 l 208 764 z "},"Û":{"ha":556,"x_min":0,"x_max":486,"o":"m 0 625 l 69 625 l 69 347 l 139 347 l 139 69 l 347 69 l 347 347 l 417 347 l 417 625 l 486 625 l 486 69 l 417 69 l 417 0 l 69 0 l 69 69 l 0 69 l 0 625 m 69 764 l 139 764 l 139 833 l 208 833 l 208 764 l 139 764 l 139 694 l 69 694 l 69 764 m 278 833 l 347 833 l 347 764 l 417 764 l 417 694 l 347 694 l 347 764 l 278 764 l 278 833 z "},"Ü":{"ha":556,"x_min":0,"x_max":486,"o":"m 0 625 l 69 625 l 69 347 l 139 347 l 139 69 l 347 69 l 347 347 l 417 347 l 417 625 l 486 625 l 486 69 l 417 69 l 417 0 l 69 0 l 69 69 l 0 69 l 0 625 m 347 764 l 417 764 l 417 694 l 347 694 l 347 764 m 69 764 l 139 764 l 139 694 l 69 694 l 69 764 z "},"Ý":{"ha":556,"x_min":0,"x_max":486,"o":"m 0 625 l 69 625 l 69 347 l 417 347 l 417 625 l 486 625 l 486 69 l 417 69 l 417 0 l 69 0 l 69 69 l 347 69 l 347 278 l 69 278 l 69 347 l 0 347 l 0 625 m 208 764 l 278 764 l 278 833 l 347 833 l 347 764 l 278 764 l 278 694 l 208 694 l 208 764 z "},"Þ":{"ha":556,"x_min":0,"x_max":486,"o":"m 0 625 l 69 625 l 69 556 l 417 556 l 417 486 l 486 486 l 486 139 l 417 139 l 417 69 l 139 69 l 139 0 l 0 0 l 0 625 m 69 347 l 139 347 l 139 139 l 417 139 l 417 486 l 69 486 l 69 347 z "},"ß":{"ha":486,"x_min":0,"x_max":417,"o":"m 0 556 l 69 556 l 69 625 l 278 625 l 278 556 l 347 556 l 347 417 l 278 417 l 278 347 l 347 347 l 347 278 l 417 278 l 417 69 l 347 69 l 347 0 l 208 0 l 208 69 l 347 69 l 347 278 l 139 278 l 139 0 l 0 0 l 0 556 m 69 347 l 208 347 l 208 417 l 278 417 l 278 556 l 69 556 l 69 347 z "},"à":{"ha":486,"x_min":0,"x_max":417,"o":"m 0 278 l 69 278 l 69 347 l 347 347 l 347 417 l 69 417 l 69 486 l 347 486 l 347 417 l 417 417 l 417 0 l 69 0 l 69 69 l 0 69 l 0 278 m 69 69 l 278 69 l 278 278 l 69 278 l 69 69 m 69 694 l 139 694 l 139 625 l 208 625 l 208 556 l 139 556 l 139 625 l 69 625 l 69 694 z "},"á":{"ha":486,"x_min":0,"x_max":417,"o":"m 69 486 l 347 486 l 347 417 l 417 417 l 417 0 l 69 0 l 69 69 l 0 69 l 0 278 l 69 278 l 69 347 l 347 347 l 347 417 l 69 417 l 69 486 m 69 69 l 278 69 l 278 278 l 69 278 l 69 69 m 208 625 l 278 625 l 278 694 l 347 694 l 347 625 l 278 625 l 278 556 l 208 556 l 208 625 z "},"â":{"ha":486,"x_min":0,"x_max":417,"o":"m 69 486 l 347 486 l 347 417 l 417 417 l 417 0 l 69 0 l 69 69 l 0 69 l 0 278 l 69 278 l 69 347 l 347 347 l 347 417 l 69 417 l 69 486 m 278 278 l 69 278 l 69 69 l 278 69 l 278 278 m 0 625 l 69 625 l 69 694 l 139 694 l 139 625 l 69 625 l 69 556 l 0 556 l 0 625 m 278 694 l 347 694 l 347 625 l 417 625 l 417 556 l 347 556 l 347 625 l 278 625 l 278 694 z "},"ã":{"ha":486,"x_min":0,"x_max":417,"o":"m 69 486 l 347 486 l 347 417 l 417 417 l 417 0 l 69 0 l 69 69 l 0 69 l 0 278 l 69 278 l 69 347 l 347 347 l 347 417 l 69 417 l 69 486 m 69 69 l 278 69 l 278 278 l 69 278 l 69 69 m 69 625 l 139 625 l 139 694 l 208 694 l 208 625 l 278 625 l 278 694 l 347 694 l 347 625 l 278 625 l 278 556 l 208 556 l 208 625 l 139 625 l 139 556 l 69 556 l 69 625 z "},"ä":{"ha":486,"x_min":0,"x_max":417,"o":"m 0 278 l 69 278 l 69 347 l 347 347 l 347 417 l 69 417 l 69 486 l 347 486 l 347 417 l 417 417 l 417 0 l 69 0 l 69 69 l 0 69 l 0 278 m 69 69 l 278 69 l 278 278 l 69 278 l 69 69 m 278 625 l 347 625 l 347 556 l 278 556 l 278 625 m 69 625 l 139 625 l 139 556 l 69 556 l 69 625 z "},"å":{"ha":486,"x_min":0,"x_max":417,"o":"m 0 278 l 69 278 l 69 347 l 347 347 l 347 417 l 69 417 l 69 486 l 347 486 l 347 417 l 417 417 l 417 0 l 69 0 l 69 69 l 0 69 l 0 278 m 69 69 l 278 69 l 278 278 l 69 278 l 69 69 m 69 694 l 139 694 l 139 764 l 208 764 l 208 694 l 278 694 l 278 625 l 208 625 l 208 556 l 139 556 l 139 625 l 69 625 l 69 694 m 139 625 l 208 625 l 208 694 l 139 694 l 139 625 z "},"æ":{"ha":694,"x_min":0,"x_max":625,"o":"m 69 486 l 556 486 l 556 417 l 625 417 l 625 139 l 347 139 l 347 69 l 556 69 l 556 0 l 69 0 l 69 69 l 0 69 l 0 278 l 69 278 l 69 347 l 278 347 l 278 417 l 69 417 l 69 486 m 417 208 l 556 208 l 556 417 l 417 417 l 417 208 m 69 69 l 208 69 l 208 278 l 69 278 l 69 69 z "},"ç":{"ha":486,"x_min":0,"x_max":417,"o":"m 0 417 l 69 417 l 69 486 l 417 486 l 417 417 l 69 417 l 69 347 l 139 347 l 139 69 l 417 69 l 417 0 l 278 0 l 278 -69 l 347 -69 l 347 -139 l 278 -139 l 278 -208 l 139 -208 l 139 -139 l 278 -139 l 278 -69 l 208 -69 l 208 0 l 69 0 l 69 69 l 0 69 l 0 417 z "},"è":{"ha":486,"x_min":0,"x_max":417,"o":"m 0 417 l 69 417 l 69 486 l 347 486 l 347 417 l 417 417 l 417 139 l 139 139 l 139 69 l 347 69 l 347 0 l 69 0 l 69 69 l 0 69 l 0 417 m 69 347 l 139 347 l 139 208 l 347 208 l 347 417 l 69 417 l 69 347 m 69 694 l 139 694 l 139 625 l 208 625 l 208 556 l 139 556 l 139 625 l 69 625 l 69 694 z "},"é":{"ha":486,"x_min":0,"x_max":417,"o":"m 0 417 l 69 417 l 69 486 l 347 486 l 347 417 l 417 417 l 417 139 l 139 139 l 139 69 l 347 69 l 347 0 l 69 0 l 69 69 l 0 69 l 0 417 m 69 347 l 139 347 l 139 208 l 347 208 l 347 417 l 69 417 l 69 347 m 208 625 l 278 625 l 278 694 l 347 694 l 347 625 l 278 625 l 278 556 l 208 556 l 208 625 z "},"ê":{"ha":486,"x_min":0,"x_max":417,"o":"m 0 417 l 69 417 l 69 486 l 347 486 l 347 417 l 417 417 l 417 139 l 139 139 l 139 69 l 347 69 l 347 0 l 69 0 l 69 69 l 0 69 l 0 417 m 69 347 l 139 347 l 139 208 l 347 208 l 347 417 l 69 417 l 69 347 m 278 694 l 347 694 l 347 625 l 417 625 l 417 556 l 347 556 l 347 625 l 278 625 l 278 694 m 0 625 l 69 625 l 69 694 l 139 694 l 139 625 l 69 625 l 69 556 l 0 556 l 0 625 z "},"ë":{"ha":486,"x_min":0,"x_max":417,"o":"m 0 417 l 69 417 l 69 486 l 347 486 l 347 417 l 417 417 l 417 139 l 139 139 l 139 69 l 347 69 l 347 0 l 69 0 l 69 69 l 0 69 l 0 417 m 69 347 l 139 347 l 139 208 l 347 208 l 347 417 l 69 417 l 69 347 m 69 625 l 139 625 l 139 556 l 69 556 l 69 625 m 278 625 l 347 625 l 347 556 l 278 556 l 278 625 z "},"ì":{"ha":347,"x_min":0,"x_max":278,"o":"m 0 486 l 278 486 l 278 417 l 139 417 l 139 347 l 208 347 l 208 69 l 278 69 l 278 0 l 0 0 l 0 69 l 69 69 l 69 417 l 0 417 l 0 486 m 0 694 l 69 694 l 69 625 l 139 625 l 139 556 l 69 556 l 69 625 l 0 625 l 0 694 z "},"í":{"ha":347,"x_min":0,"x_max":278,"o":"m 0 486 l 278 486 l 278 417 l 139 417 l 139 347 l 208 347 l 208 69 l 278 69 l 278 0 l 0 0 l 0 69 l 69 69 l 69 417 l 0 417 l 0 486 m 139 625 l 208 625 l 208 694 l 278 694 l 278 625 l 208 625 l 208 556 l 139 556 l 139 625 z "},"î":{"ha":486,"x_min":0,"x_max":417,"o":"m 69 486 l 347 486 l 347 417 l 208 417 l 208 347 l 278 347 l 278 69 l 347 69 l 347 0 l 69 0 l 69 69 l 139 69 l 139 417 l 69 417 l 69 486 m 0 625 l 69 625 l 69 694 l 139 694 l 139 625 l 69 625 l 69 556 l 0 556 l 0 625 m 278 694 l 347 694 l 347 625 l 417 625 l 417 556 l 347 556 l 347 625 l 278 625 l 278 694 z "},"ï":{"ha":347,"x_min":0,"x_max":278,"o":"m 0 486 l 278 486 l 278 417 l 139 417 l 139 347 l 208 347 l 208 69 l 278 69 l 278 0 l 0 0 l 0 69 l 69 69 l 69 417 l 0 417 l 0 486 m 208 625 l 278 625 l 278 556 l 208 556 l 208 625 m 0 625 l 69 625 l 69 556 l 0 556 l 0 625 z "},"ð":{"ha":486,"x_min":0,"x_max":417,"o":"m 139 625 l 347 625 l 347 556 l 417 556 l 417 69 l 347 69 l 347 0 l 69 0 l 69 69 l 0 69 l 0 417 l 69 417 l 69 486 l 347 486 l 347 556 l 139 556 l 139 625 m 69 69 l 278 69 l 278 347 l 347 347 l 347 417 l 69 417 l 69 69 z "},"ñ":{"ha":486,"x_min":0,"x_max":417,"o":"m 0 486 l 347 486 l 347 417 l 417 417 l 417 0 l 347 0 l 347 417 l 69 417 l 69 347 l 139 347 l 139 0 l 0 0 l 0 486 m 69 625 l 139 625 l 139 694 l 208 694 l 208 625 l 278 625 l 278 694 l 347 694 l 347 625 l 278 625 l 278 556 l 208 556 l 208 625 l 139 625 l 139 556 l 69 556 l 69 625 z "},"ò":{"ha":486,"x_min":0,"x_max":417,"o":"m 0 417 l 69 417 l 69 486 l 347 486 l 347 417 l 417 417 l 417 69 l 347 69 l 347 0 l 69 0 l 69 69 l 0 69 l 0 417 m 69 347 l 139 347 l 139 69 l 347 69 l 347 417 l 69 417 l 69 347 m 69 694 l 139 694 l 139 625 l 208 625 l 208 556 l 139 556 l 139 625 l 69 625 l 69 694 z "},"ó":{"ha":486,"x_min":0,"x_max":417,"o":"m 0 417 l 69 417 l 69 486 l 347 486 l 347 417 l 417 417 l 417 69 l 347 69 l 347 0 l 69 0 l 69 69 l 0 69 l 0 417 m 69 347 l 139 347 l 139 69 l 347 69 l 347 417 l 69 417 l 69 347 m 208 625 l 278 625 l 278 694 l 347 694 l 347 625 l 278 625 l 278 556 l 208 556 l 208 625 z "},"ô":{"ha":486,"x_min":0,"x_max":417,"o":"m 0 417 l 69 417 l 69 486 l 347 486 l 347 417 l 417 417 l 417 69 l 347 69 l 347 0 l 69 0 l 69 69 l 0 69 l 0 417 m 69 347 l 139 347 l 139 69 l 347 69 l 347 417 l 69 417 l 69 347 m 278 694 l 347 694 l 347 625 l 417 625 l 417 556 l 347 556 l 347 625 l 278 625 l 278 694 m 0 625 l 69 625 l 69 694 l 139 694 l 139 625 l 69 625 l 69 556 l 0 556 l 0 625 z "},"õ":{"ha":486,"x_min":0,"x_max":417,"o":"m 0 417 l 69 417 l 69 486 l 347 486 l 347 417 l 417 417 l 417 69 l 347 69 l 347 0 l 69 0 l 69 69 l 0 69 l 0 417 m 69 347 l 139 347 l 139 69 l 347 69 l 347 417 l 69 417 l 69 347 m 69 625 l 139 625 l 139 694 l 208 694 l 208 625 l 278 625 l 278 694 l 347 694 l 347 625 l 278 625 l 278 556 l 208 556 l 208 625 l 139 625 l 139 556 l 69 556 l 69 625 z "},"ö":{"ha":486,"x_min":0,"x_max":417,"o":"m 0 417 l 69 417 l 69 486 l 347 486 l 347 417 l 417 417 l 417 69 l 347 69 l 347 0 l 69 0 l 69 69 l 0 69 l 0 417 m 69 347 l 139 347 l 139 69 l 347 69 l 347 417 l 69 417 l 69 347 m 278 625 l 347 625 l 347 556 l 278 556 l 278 625 m 69 625 l 139 625 l 139 556 l 69 556 l 69 625 z "},"÷":{"ha":486,"x_min":0,"x_max":417,"o":"m 0 347 l 417 347 l 417 278 l 0 278 l 0 347 m 139 486 l 278 486 l 278 417 l 139 417 l 139 486 m 139 208 l 278 208 l 278 139 l 139 139 l 139 208 z "},"ø":{"ha":625,"x_min":0,"x_max":556,"o":"m 0 0 l 69 0 l 69 417 l 139 417 l 139 486 l 417 486 l 417 417 l 486 417 l 486 486 l 556 486 l 556 417 l 486 417 l 486 69 l 417 69 l 417 0 l 69 0 l 69 -69 l 0 -69 l 0 0 m 139 347 l 208 347 l 208 208 l 278 208 l 278 278 l 347 278 l 347 347 l 417 347 l 417 417 l 139 417 l 139 347 m 417 278 l 347 278 l 347 208 l 278 208 l 278 139 l 208 139 l 208 69 l 417 69 l 417 278 z "},"ù":{"ha":486,"x_min":0,"x_max":417,"o":"m 0 486 l 69 486 l 69 417 l 139 417 l 139 69 l 347 69 l 347 486 l 417 486 l 417 69 l 347 69 l 347 0 l 69 0 l 69 69 l 0 69 l 0 486 m 69 694 l 139 694 l 139 625 l 208 625 l 208 556 l 139 556 l 139 625 l 69 625 l 69 694 z "},"ú":{"ha":486,"x_min":0,"x_max":417,"o":"m 0 486 l 69 486 l 69 417 l 139 417 l 139 69 l 347 69 l 347 486 l 417 486 l 417 69 l 347 69 l 347 0 l 69 0 l 69 69 l 0 69 l 0 486 m 208 625 l 278 625 l 278 694 l 347 694 l 347 625 l 278 625 l 278 556 l 208 556 l 208 625 z "},"û":{"ha":486,"x_min":0,"x_max":417,"o":"m 0 486 l 69 486 l 69 417 l 139 417 l 139 69 l 347 69 l 347 486 l 417 486 l 417 69 l 347 69 l 347 0 l 69 0 l 69 69 l 0 69 l 0 486 m 0 625 l 69 625 l 69 694 l 139 694 l 139 625 l 69 625 l 69 556 l 0 556 l 0 625 m 278 694 l 347 694 l 347 625 l 417 625 l 417 556 l 347 556 l 347 625 l 278 625 l 278 694 z "},"ü":{"ha":486,"x_min":0,"x_max":417,"o":"m 0 486 l 69 486 l 69 417 l 139 417 l 139 69 l 347 69 l 347 486 l 417 486 l 417 69 l 347 69 l 347 0 l 69 0 l 69 69 l 0 69 l 0 486 m 69 625 l 139 625 l 139 556 l 69 556 l 69 625 m 278 625 l 347 625 l 347 556 l 278 556 l 278 625 z "},"ý":{"ha":486,"x_min":0,"x_max":417,"o":"m 0 486 l 69 486 l 69 69 l 278 69 l 278 417 l 347 417 l 347 486 l 417 486 l 417 -69 l 347 -69 l 347 -139 l 69 -139 l 69 -69 l 278 -69 l 278 0 l 69 0 l 69 69 l 0 69 l 0 486 m 208 625 l 278 625 l 278 694 l 347 694 l 347 625 l 278 625 l 278 556 l 208 556 l 208 625 z "},"þ":{"ha":486,"x_min":0,"x_max":417,"o":"m 0 625 l 69 625 l 69 486 l 347 486 l 347 417 l 417 417 l 417 69 l 347 69 l 347 0 l 139 0 l 139 -139 l 0 -139 l 0 625 m 69 347 l 139 347 l 139 69 l 347 69 l 347 417 l 69 417 l 69 347 z "},"ÿ":{"ha":486,"x_min":0,"x_max":417,"o":"m 0 486 l 69 486 l 69 69 l 278 69 l 278 417 l 347 417 l 347 486 l 417 486 l 417 -69 l 347 -69 l 347 -139 l 69 -139 l 69 -69 l 278 -69 l 278 0 l 69 0 l 69 69 l 0 69 l 0 486 m 278 625 l 347 625 l 347 556 l 278 556 l 278 625 m 69 625 l 139 625 l 139 556 l 69 556 l 69 625 z "},"Ё":{"ha":556,"x_min":0,"x_max":486,"o":"m 0 625 l 486 625 l 486 556 l 69 556 l 69 347 l 417 347 l 417 278 l 139 278 l 139 69 l 486 69 l 486 0 l 0 0 l 0 625 m 69 764 l 139 764 l 139 694 l 69 694 l 69 764 m 347 764 l 417 764 l 417 694 l 347 694 l 347 764 z "},"Ђ":{"ha":556,"x_min":0,"x_max":486,"o":"m 0 625 l 278 625 l 278 556 l 139 556 l 139 486 l 417 486 l 417 417 l 486 417 l 486 69 l 417 69 l 417 0 l 278 0 l 278 69 l 417 69 l 417 417 l 139 417 l 139 347 l 208 347 l 208 0 l 69 0 l 69 556 l 0 556 l 0 625 z "},"Ѓ":{"ha":556,"x_min":0,"x_max":486,"o":"m 0 625 l 486 625 l 486 556 l 69 556 l 69 347 l 139 347 l 139 0 l 0 0 l 0 625 m 208 764 l 278 764 l 278 833 l 347 833 l 347 764 l 278 764 l 278 694 l 208 694 l 208 764 z "},"Є":{"ha":556,"x_min":0,"x_max":486,"o":"m 0 556 l 69 556 l 69 625 l 486 625 l 486 556 l 69 556 l 69 347 l 347 347 l 347 278 l 139 278 l 139 69 l 486 69 l 486 0 l 69 0 l 69 69 l 0 69 l 0 556 z "},"Ѕ":{"ha":556,"x_min":0,"x_max":486,"o":"m 0 556 l 69 556 l 69 625 l 486 625 l 486 556 l 69 556 l 69 347 l 417 347 l 417 278 l 486 278 l 486 69 l 417 69 l 417 0 l 0 0 l 0 69 l 347 69 l 347 278 l 69 278 l 69 347 l 0 347 l 0 556 z "},"І":{"ha":347,"x_min":0,"x_max":278,"o":"m 0 625 l 278 625 l 278 556 l 208 556 l 208 69 l 278 69 l 278 0 l 0 0 l 0 69 l 69 69 l 69 347 l 139 347 l 139 556 l 0 556 l 0 625 z "},"Ї":{"ha":347,"x_min":0,"x_max":278,"o":"m 0 625 l 278 625 l 278 556 l 208 556 l 208 69 l 278 69 l 278 0 l 0 0 l 0 69 l 69 69 l 69 347 l 139 347 l 139 556 l 0 556 l 0 625 m 208 764 l 278 764 l 278 694 l 208 694 l 208 764 m 0 764 l 69 764 l 69 694 l 0 694 l 0 764 z "},"Ј":{"ha":556,"x_min":0,"x_max":486,"o":"m 0 625 l 486 625 l 486 69 l 417 69 l 417 0 l 69 0 l 69 69 l 0 69 l 0 278 l 69 278 l 69 69 l 347 69 l 347 347 l 417 347 l 417 556 l 0 556 l 0 625 z "},"Љ":{"ha":694,"x_min":0,"x_max":625,"o":"m 278 556 l 69 556 l 69 347 l 139 347 l 139 0 l 0 0 l 0 556 l 69 556 l 69 625 l 347 625 l 347 347 l 556 347 l 556 278 l 625 278 l 625 69 l 556 69 l 556 0 l 278 0 l 278 556 m 417 278 l 417 69 l 556 69 l 556 276 l 417 278 z "},"Њ":{"ha":694,"x_min":0,"x_max":625,"o":"m 0 625 l 69 625 l 69 347 l 278 347 l 278 625 l 347 625 l 347 347 l 556 347 l 556 278 l 625 278 l 625 69 l 556 69 l 556 0 l 278 0 l 278 278 l 139 278 l 139 0 l 0 0 l 0 625 m 417 69 l 556 69 l 556 278 l 417 278 l 417 69 z "},"Ћ":{"ha":556,"x_min":0,"x_max":486,"o":"m 0 625 l 278 625 l 278 556 l 139 556 l 139 486 l 417 486 l 417 417 l 486 417 l 486 0 l 417 0 l 417 417 l 139 417 l 139 347 l 208 347 l 208 0 l 69 0 l 69 556 l 0 556 l 0 625 z "},"Ќ":{"ha":556,"x_min":0,"x_max":486,"o":"m 0 625 l 69 625 l 69 347 l 278 347 l 278 417 l 347 417 l 347 486 l 417 486 l 417 625 l 486 625 l 486 486 l 417 486 l 417 417 l 347 417 l 347 347 l 278 347 l 278 278 l 347 278 l 347 208 l 417 208 l 417 139 l 486 139 l 486 0 l 417 0 l 417 139 l 347 139 l 347 208 l 278 208 l 278 278 l 139 278 l 139 0 l 0 0 l 0 625 m 208 764 l 278 764 l 278 833 l 347 833 l 347 764 l 278 764 l 278 694 l 208 694 l 208 764 z "},"Ў":{"ha":556,"x_min":0,"x_max":486,"o":"m 0 625 l 69 625 l 69 347 l 417 347 l 417 625 l 486 625 l 486 69 l 417 69 l 417 0 l 69 0 l 69 69 l 347 69 l 347 278 l 69 278 l 69 347 l 0 347 l 0 625 m 69 833 l 139 833 l 139 764 l 347 764 l 347 833 l 417 833 l 417 764 l 347 764 l 347 694 l 139 694 l 139 764 l 69 764 l 69 833 z "},"Џ":{"ha":556,"x_min":0,"x_max":486,"o":"m 0 625 l 69 625 l 69 347 l 139 347 l 139 69 l 347 69 l 347 347 l 417 347 l 417 625 l 486 625 l 486 0 l 278 0 l 278 -139 l 208 -139 l 208 0 l 0 0 l 0 625 z "},"А":{"ha":556,"x_min":0,"x_max":486,"o":"m 0 556 l 69 556 l 69 625 l 417 625 l 417 556 l 486 556 l 486 0 l 347 0 l 347 278 l 139 278 l 139 0 l 0 0 l 0 556 m 69 347 l 417 347 l 417 556 l 69 556 l 69 347 z "},"Б":{"ha":556,"x_min":0,"x_max":486,"o":"m 0 625 l 486 625 l 486 556 l 69 556 l 69 347 l 417 347 l 417 278 l 486 278 l 486 69 l 417 69 l 417 0 l 0 0 l 0 625 m 139 69 l 417 69 l 417 278 l 139 278 l 139 69 z "},"В":{"ha":556,"x_min":0,"x_max":486,"o":"m 0 625 l 417 625 l 417 556 l 486 556 l 486 347 l 417 347 l 417 278 l 486 278 l 486 69 l 417 69 l 417 0 l 0 0 l 0 625 m 69 347 l 417 347 l 417 556 l 69 556 l 69 347 m 417 278 l 139 278 l 139 69 l 417 69 l 417 278 z "},"Г":{"ha":556,"x_min":0,"x_max":486,"o":"m 0 625 l 486 625 l 486 556 l 69 556 l 69 347 l 139 347 l 139 0 l 0 0 l 0 625 z "},"Д":{"ha":556,"x_min":0,"x_max":486,"o":"m 0 69 l 69 69 l 69 556 l 139 556 l 139 625 l 417 625 l 417 69 l 486 69 l 486 -69 l 417 -69 l 417 0 l 69 0 l 69 -69 l 0 -69 l 0 69 m 139 347 l 208 347 l 208 69 l 347 69 l 347 556 l 139 556 l 139 347 z "},"Е":{"ha":556,"x_min":0,"x_max":486,"o":"m 0 625 l 486 625 l 486 556 l 69 556 l 69 347 l 417 347 l 417 278 l 139 278 l 139 69 l 486 69 l 486 0 l 0 0 l 0 625 z "},"Ж":{"ha":556,"x_min":0,"x_max":486,"o":"m 0 625 l 69 625 l 69 347 l 208 347 l 208 625 l 278 625 l 278 347 l 417 347 l 417 625 l 486 625 l 486 347 l 417 347 l 417 278 l 486 278 l 486 0 l 347 0 l 347 278 l 278 278 l 278 0 l 208 0 l 208 278 l 139 278 l 139 0 l 0 0 l 0 278 l 69 278 l 69 347 l 0 347 l 0 625 z "},"З":{"ha":556,"x_min":0,"x_max":486,"o":"m 0 625 l 417 625 l 417 556 l 486 556 l 486 347 l 417 347 l 417 278 l 486 278 l 486 69 l 417 69 l 417 0 l 0 0 l 0 69 l 347 69 l 347 278 l 139 278 l 139 347 l 417 347 l 417 556 l 0 556 l 0 625 z "},"И":{"ha":556,"x_min":0,"x_max":486,"o":"m 0 625 l 69 625 l 69 208 l 139 208 l 139 278 l 208 278 l 208 347 l 278 347 l 278 417 l 347 417 l 347 486 l 417 486 l 417 625 l 486 625 l 486 0 l 347 0 l 347 347 l 278 347 l 278 278 l 208 278 l 208 208 l 139 208 l 139 139 l 69 139 l 69 0 l 0 0 l 0 625 z "},"Й":{"ha":556,"x_min":0,"x_max":486,"o":"m 0 625 l 69 625 l 69 208 l 139 208 l 139 278 l 208 278 l 208 347 l 278 347 l 278 417 l 347 417 l 347 486 l 417 486 l 417 625 l 486 625 l 486 0 l 347 0 l 347 347 l 278 347 l 278 278 l 208 278 l 208 208 l 139 208 l 139 139 l 69 139 l 69 0 l 0 0 l 0 625 m 69 833 l 139 833 l 139 764 l 347 764 l 347 833 l 417 833 l 417 764 l 347 764 l 347 694 l 139 694 l 139 764 l 69 764 l 69 833 z "},"К":{"ha":556,"x_min":0,"x_max":486,"o":"m 0 625 l 69 625 l 69 347 l 278 347 l 278 417 l 347 417 l 347 486 l 417 486 l 417 625 l 486 625 l 486 486 l 417 486 l 417 417 l 347 417 l 347 347 l 278 347 l 278 278 l 347 278 l 347 208 l 417 208 l 417 139 l 486 139 l 486 0 l 417 0 l 417 139 l 347 139 l 347 208 l 278 208 l 278 278 l 139 278 l 139 0 l 0 0 l 0 625 z "},"Л":{"ha":556,"x_min":0,"x_max":486,"o":"m 0 417 l 69 417 l 69 486 l 139 486 l 139 556 l 208 556 l 208 625 l 417 625 l 417 556 l 486 556 l 486 0 l 347 0 l 347 347 l 417 347 l 417 556 l 208 556 l 208 486 l 139 486 l 139 417 l 69 417 l 69 0 l 0 0 l 0 417 z "},"М":{"ha":556,"x_min":0,"x_max":486,"o":"m 0 625 l 69 625 l 69 417 l 139 417 l 139 347 l 208 347 l 208 278 l 278 278 l 278 347 l 347 347 l 347 417 l 417 417 l 417 625 l 486 625 l 486 0 l 347 0 l 347 278 l 278 278 l 278 139 l 208 139 l 208 278 l 139 278 l 139 0 l 0 0 l 0 625 z "},"Н":{"ha":556,"x_min":0,"x_max":486,"o":"m 0 625 l 69 625 l 69 347 l 417 347 l 417 625 l 486 625 l 486 0 l 347 0 l 347 278 l 139 278 l 139 0 l 0 0 l 0 625 z "},"О":{"ha":556,"x_min":0,"x_max":486,"o":"m 0 556 l 69 556 l 69 625 l 417 625 l 417 556 l 486 556 l 486 69 l 417 69 l 417 0 l 69 0 l 69 69 l 0 69 l 0 556 m 69 347 l 139 347 l 139 69 l 347 69 l 347 347 l 417 347 l 417 556 l 69 556 l 69 347 z "},"П":{"ha":556,"x_min":0,"x_max":486,"o":"m 0 625 l 486 625 l 486 0 l 347 0 l 347 347 l 417 347 l 417 556 l 69 556 l 69 347 l 139 347 l 139 0 l 0 0 l 0 625 z "},"Р":{"ha":556,"x_min":0,"x_max":486,"o":"m 0 625 l 417 625 l 417 556 l 486 556 l 486 347 l 417 347 l 417 278 l 139 278 l 139 0 l 0 0 l 0 625 m 69 347 l 417 347 l 417 556 l 69 556 l 69 347 z "},"С":{"ha":556,"x_min":0,"x_max":486,"o":"m 0 556 l 69 556 l 69 625 l 486 625 l 486 556 l 69 556 l 69 347 l 139 347 l 139 69 l 486 69 l 486 0 l 69 0 l 69 69 l 0 69 l 0 556 z "},"Т":{"ha":556,"x_min":0,"x_max":486,"o":"m 0 625 l 486 625 l 486 556 l 278 556 l 278 0 l 139 0 l 139 347 l 208 347 l 208 556 l 0 556 l 0 625 z "},"У":{"ha":556,"x_min":0,"x_max":486,"o":"m 0 625 l 69 625 l 69 347 l 417 347 l 417 625 l 486 625 l 486 69 l 417 69 l 417 0 l 69 0 l 69 69 l 347 69 l 347 278 l 69 278 l 69 347 l 0 347 l 0 625 z "},"Ф":{"ha":556,"x_min":0,"x_max":486,"o":"m 0 556 l 69 556 l 69 625 l 417 625 l 417 556 l 486 556 l 486 208 l 417 208 l 417 139 l 278 139 l 278 0 l 208 0 l 208 139 l 69 139 l 69 208 l 0 208 l 0 556 m 417 556 l 278 556 l 278 208 l 347 208 l 347 347 l 417 347 l 417 556 m 69 347 l 139 347 l 139 208 l 208 208 l 208 556 l 69 556 l 69 347 z "},"Х":{"ha":556,"x_min":0,"x_max":486,"o":"m 0 625 l 69 625 l 69 486 l 139 486 l 139 417 l 208 417 l 208 347 l 278 347 l 278 417 l 347 417 l 347 486 l 417 486 l 417 625 l 486 625 l 486 486 l 417 486 l 417 417 l 347 417 l 347 347 l 278 347 l 278 278 l 347 278 l 347 208 l 417 208 l 417 139 l 486 139 l 486 0 l 347 0 l 347 208 l 278 208 l 278 278 l 208 278 l 208 208 l 139 208 l 139 0 l 0 0 l 0 139 l 69 139 l 69 208 l 139 208 l 139 278 l 208 278 l 208 347 l 139 347 l 139 417 l 69 417 l 69 486 l 0 486 l 0 625 z "},"Ц":{"ha":625,"x_min":0,"x_max":556,"o":"m 0 625 l 69 625 l 69 347 l 139 347 l 139 69 l 347 69 l 347 347 l 417 347 l 417 625 l 486 625 l 486 69 l 556 69 l 556 -139 l 486 -139 l 486 0 l 0 0 l 0 625 z "},"Ч":{"ha":556,"x_min":0,"x_max":486,"o":"m 0 625 l 69 625 l 69 347 l 417 347 l 417 625 l 486 625 l 486 0 l 347 0 l 347 278 l 69 278 l 69 347 l 0 347 l 0 625 z "},"Ш":{"ha":556,"x_min":0,"x_max":486,"o":"m 0 625 l 69 625 l 69 347 l 139 347 l 139 69 l 208 69 l 208 625 l 278 625 l 278 69 l 347 69 l 347 347 l 417 347 l 417 625 l 486 625 l 486 0 l 0 0 l 0 625 z "},"Щ":{"ha":625,"x_min":0,"x_max":556,"o":"m 0 625 l 69 625 l 69 347 l 139 347 l 139 69 l 208 69 l 208 625 l 278 625 l 278 69 l 347 69 l 347 347 l 417 347 l 417 625 l 486 625 l 486 69 l 556 69 l 556 -139 l 486 -139 l 486 0 l 0 0 l 0 625 z "},"Ъ":{"ha":694,"x_min":0,"x_max":625,"o":"m 0 625 l 208 625 l 208 347 l 556 347 l 556 278 l 625 278 l 625 69 l 556 69 l 556 0 l 139 0 l 139 556 l 0 556 l 0 625 m 278 69 l 556 69 l 556 278 l 278 278 l 278 69 z "},"Ы":{"ha":764,"x_min":0,"x_max":694,"o":"m 0 625 l 69 625 l 69 347 l 417 347 l 417 278 l 486 278 l 486 69 l 417 69 l 417 0 l 0 0 l 0 625 m 556 625 l 625 625 l 625 347 l 694 347 l 694 0 l 556 0 l 556 625 m 139 69 l 417 69 l 417 278 l 139 278 l 139 69 z "},"Ь":{"ha":556,"x_min":0,"x_max":486,"o":"m 0 625 l 69 625 l 69 347 l 417 347 l 417 278 l 486 278 l 486 69 l 417 69 l 417 0 l 0 0 l 0 625 m 139 69 l 417 69 l 417 278 l 139 278 l 139 69 z "},"Э":{"ha":556,"x_min":0,"x_max":486,"o":"m 0 625 l 417 625 l 417 556 l 486 556 l 486 69 l 417 69 l 417 0 l 0 0 l 0 69 l 347 69 l 347 278 l 139 278 l 139 347 l 417 347 l 417 556 l 0 556 l 0 625 z "},"Ю":{"ha":625,"x_min":0,"x_max":556,"o":"m 0 625 l 69 625 l 69 347 l 208 347 l 208 556 l 278 556 l 278 625 l 486 625 l 486 556 l 556 556 l 556 69 l 486 69 l 486 0 l 278 0 l 278 69 l 208 69 l 208 278 l 139 278 l 139 0 l 0 0 l 0 625 m 278 69 l 417 69 l 417 347 l 486 347 l 486 556 l 278 556 l 278 69 z "},"Я":{"ha":556,"x_min":0,"x_max":486,"o":"m 0 556 l 69 556 l 69 625 l 486 625 l 486 0 l 347 0 l 347 278 l 208 278 l 208 208 l 139 208 l 139 139 l 69 139 l 69 0 l 0 0 l 0 139 l 69 139 l 69 208 l 139 208 l 139 278 l 69 278 l 69 347 l 0 347 l 0 556 m 69 347 l 417 347 l 417 556 l 69 556 l 69 347 z "},"а":{"ha":486,"x_min":0,"x_max":417,"o":"m 0 278 l 69 278 l 69 347 l 347 347 l 347 417 l 69 417 l 69 486 l 347 486 l 347 417 l 417 417 l 417 0 l 69 0 l 69 69 l 0 69 l 0 278 m 69 69 l 278 69 l 278 278 l 69 278 l 69 69 z "},"б":{"ha":486,"x_min":0,"x_max":417,"o":"m 0 556 l 69 556 l 69 625 l 417 625 l 417 556 l 69 556 l 69 486 l 347 486 l 347 417 l 417 417 l 417 69 l 347 69 l 347 0 l 69 0 l 69 69 l 0 69 l 0 556 m 69 347 l 139 347 l 139 69 l 347 69 l 347 417 l 69 417 l 69 347 z "},"в":{"ha":486,"x_min":0,"x_max":417,"o":"m 0 486 l 347 486 l 347 417 l 417 417 l 417 278 l 347 278 l 347 208 l 417 208 l 417 69 l 347 69 l 347 0 l 0 0 l 0 486 m 69 347 l 139 347 l 139 278 l 347 278 l 347 417 l 69 417 l 69 347 m 347 208 l 139 208 l 139 69 l 347 69 l 347 208 z "},"г":{"ha":486,"x_min":0,"x_max":417,"o":"m 0 486 l 417 486 l 417 417 l 69 417 l 69 347 l 139 347 l 139 0 l 0 0 l 0 486 z "},"д":{"ha":486,"x_min":0,"x_max":417,"o":"m 0 625 l 347 625 l 347 556 l 417 556 l 417 69 l 347 69 l 347 0 l 69 0 l 69 69 l 0 69 l 0 417 l 69 417 l 69 486 l 347 486 l 347 556 l 0 556 l 0 625 m 69 69 l 278 69 l 278 347 l 347 347 l 347 417 l 69 417 l 69 69 z "},"е":{"ha":486,"x_min":0,"x_max":417,"o":"m 0 417 l 69 417 l 69 486 l 347 486 l 347 417 l 417 417 l 417 139 l 139 139 l 139 69 l 347 69 l 347 0 l 69 0 l 69 69 l 0 69 l 0 417 m 69 347 l 139 347 l 139 208 l 347 208 l 347 417 l 69 417 l 69 347 z "},"ж":{"ha":556,"x_min":0,"x_max":486,"o":"m 0 486 l 69 486 l 69 347 l 139 347 l 139 278 l 208 278 l 208 486 l 278 486 l 278 278 l 347 278 l 347 347 l 417 347 l 417 486 l 486 486 l 486 347 l 417 347 l 417 208 l 486 208 l 486 0 l 347 0 l 347 208 l 278 208 l 278 0 l 208 0 l 208 208 l 139 208 l 139 0 l 0 0 l 0 208 l 69 208 l 69 347 l 0 347 l 0 486 z "},"з":{"ha":486,"x_min":0,"x_max":417,"o":"m 69 278 l 278 278 l 278 347 l 347 347 l 347 417 l 0 417 l 0 486 l 347 486 l 347 417 l 417 417 l 417 278 l 347 278 l 347 208 l 417 208 l 417 69 l 347 69 l 347 0 l 0 0 l 0 69 l 278 69 l 278 208 l 69 208 l 69 278 z "},"и":{"ha":486,"x_min":0,"x_max":417,"o":"m 0 486 l 69 486 l 69 139 l 139 139 l 139 208 l 208 208 l 208 278 l 278 278 l 278 347 l 347 347 l 347 486 l 417 486 l 417 0 l 278 0 l 278 208 l 208 208 l 208 139 l 139 139 l 139 69 l 69 69 l 69 0 l 0 0 l 0 486 z "},"й":{"ha":486,"x_min":0,"x_max":417,"o":"m 0 486 l 69 486 l 69 139 l 139 139 l 139 208 l 208 208 l 208 278 l 278 278 l 278 347 l 347 347 l 347 486 l 417 486 l 417 0 l 278 0 l 278 208 l 208 208 l 208 139 l 139 139 l 139 69 l 69 69 l 69 0 l 0 0 l 0 486 m 69 694 l 139 694 l 139 625 l 278 625 l 278 694 l 347 694 l 347 625 l 278 625 l 278 556 l 139 556 l 139 625 l 69 625 l 69 694 z "},"к":{"ha":486,"x_min":0,"x_max":417,"o":"m 0 486 l 69 486 l 69 278 l 278 278 l 278 347 l 347 347 l 347 486 l 417 486 l 417 347 l 347 347 l 347 278 l 278 278 l 278 208 l 347 208 l 347 139 l 417 139 l 417 0 l 347 0 l 347 139 l 278 139 l 278 208 l 139 208 l 139 0 l 0 0 l 0 486 z "},"л":{"ha":486,"x_min":0,"x_max":417,"o":"m 0 347 l 69 347 l 69 417 l 139 417 l 139 486 l 417 486 l 417 0 l 278 0 l 278 347 l 347 347 l 347 417 l 139 417 l 139 347 l 69 347 l 69 0 l 0 0 l 0 347 z "},"м":{"ha":556,"x_min":0,"x_max":486,"o":"m 0 486 l 69 486 l 69 347 l 139 347 l 139 278 l 208 278 l 208 208 l 278 208 l 278 278 l 347 278 l 347 347 l 417 347 l 417 486 l 486 486 l 486 0 l 347 0 l 347 208 l 278 208 l 278 69 l 208 69 l 208 208 l 139 208 l 139 0 l 0 0 l 0 486 z "},"н":{"ha":486,"x_min":0,"x_max":417,"o":"m 0 486 l 69 486 l 69 278 l 347 278 l 347 486 l 417 486 l 417 0 l 278 0 l 278 208 l 139 208 l 139 0 l 0 0 l 0 486 z "},"о":{"ha":486,"x_min":0,"x_max":417,"o":"m 0 417 l 69 417 l 69 486 l 347 486 l 347 417 l 417 417 l 417 69 l 347 69 l 347 0 l 69 0 l 69 69 l 0 69 l 0 417 m 69 347 l 139 347 l 139 69 l 347 69 l 347 417 l 69 417 l 69 347 z "},"п":{"ha":486,"x_min":0,"x_max":417,"o":"m 0 486 l 417 486 l 417 0 l 278 0 l 278 347 l 347 347 l 347 417 l 69 417 l 69 347 l 139 347 l 139 0 l 0 0 l 0 486 z "},"р":{"ha":486,"x_min":0,"x_max":417,"o":"m 0 486 l 347 486 l 347 417 l 417 417 l 417 69 l 347 69 l 347 0 l 139 0 l 139 -139 l 0 -139 l 0 486 m 69 347 l 139 347 l 139 69 l 347 69 l 347 417 l 69 417 l 69 347 z "},"с":{"ha":486,"x_min":0,"x_max":417,"o":"m 0 417 l 69 417 l 69 486 l 417 486 l 417 417 l 69 417 l 69 347 l 139 347 l 139 69 l 417 69 l 417 0 l 69 0 l 69 69 l 0 69 l 0 417 z "},"т":{"ha":486,"x_min":0,"x_max":417,"o":"m 0 486 l 417 486 l 417 417 l 208 417 l 208 347 l 278 347 l 278 0 l 139 0 l 139 417 l 0 417 l 0 486 z "},"у":{"ha":486,"x_min":0,"x_max":417,"o":"m 0 486 l 69 486 l 69 69 l 278 69 l 278 417 l 347 417 l 347 486 l 417 486 l 417 -69 l 347 -69 l 347 -139 l 69 -139 l 69 -69 l 278 -69 l 278 0 l 69 0 l 69 69 l 0 69 l 0 486 z "},"ф":{"ha":556,"x_min":0,"x_max":486,"o":"m 0 417 l 69 417 l 69 486 l 208 486 l 208 625 l 278 625 l 278 486 l 417 486 l 417 417 l 486 417 l 486 69 l 417 69 l 417 0 l 278 0 l 278 -139 l 208 -139 l 208 0 l 69 0 l 69 69 l 0 69 l 0 417 m 69 347 l 139 347 l 139 69 l 208 69 l 208 417 l 69 417 l 69 347 m 278 69 l 347 69 l 347 347 l 417 347 l 417 417 l 278 417 l 278 69 z "},"х":{"ha":486,"x_min":0,"x_max":417,"o":"m 0 486 l 139 486 l 139 278 l 278 278 l 278 486 l 417 486 l 417 347 l 347 347 l 347 278 l 278 278 l 278 208 l 347 208 l 347 139 l 417 139 l 417 0 l 278 0 l 278 208 l 139 208 l 139 0 l 0 0 l 0 139 l 69 139 l 69 208 l 139 208 l 139 278 l 69 278 l 69 347 l 0 347 l 0 486 z "},"ц":{"ha":556,"x_min":0,"x_max":486,"o":"m 0 486 l 69 486 l 69 347 l 139 347 l 139 69 l 278 69 l 278 347 l 347 347 l 347 486 l 417 486 l 417 69 l 486 69 l 486 -139 l 417 -139 l 417 0 l 0 0 l 0 486 z "},"ч":{"ha":486,"x_min":0,"x_max":417,"o":"m 0 486 l 69 486 l 69 208 l 278 208 l 278 347 l 347 347 l 347 486 l 417 486 l 417 0 l 278 0 l 278 139 l 69 139 l 69 208 l 0 208 l 0 486 z "},"ш":{"ha":556,"x_min":0,"x_max":486,"o":"m 0 486 l 69 486 l 69 347 l 139 347 l 139 69 l 208 69 l 208 486 l 278 486 l 278 69 l 347 69 l 347 347 l 417 347 l 417 486 l 486 486 l 486 0 l 0 0 l 0 486 z "},"щ":{"ha":625,"x_min":0,"x_max":556,"o":"m 0 486 l 69 486 l 69 347 l 139 347 l 139 69 l 208 69 l 208 486 l 278 486 l 278 69 l 347 69 l 347 347 l 417 347 l 417 486 l 486 486 l 486 69 l 556 69 l 556 -139 l 486 -139 l 486 0 l 0 0 l 0 486 z "},"ъ":{"ha":556,"x_min":0,"x_max":486,"o":"m 0 486 l 139 486 l 139 347 l 417 347 l 417 278 l 486 278 l 486 69 l 417 69 l 417 0 l 69 0 l 69 417 l 0 417 l 0 486 m 208 278 l 208 69 l 417 69 l 417 276 l 208 278 z "},"ы":{"ha":694,"x_min":0,"x_max":625,"o":"m 0 486 l 69 486 l 69 347 l 347 347 l 347 278 l 417 278 l 417 69 l 347 69 l 347 0 l 0 0 l 0 486 m 486 486 l 556 486 l 556 347 l 625 347 l 625 0 l 486 0 l 486 486 m 139 69 l 347 69 l 347 278 l 139 278 l 139 69 z "},"ь":{"ha":486,"x_min":0,"x_max":417,"o":"m 0 486 l 69 486 l 69 347 l 347 347 l 347 278 l 417 278 l 417 69 l 347 69 l 347 0 l 0 0 l 0 486 m 139 69 l 347 69 l 347 278 l 139 278 l 139 69 z "},"э":{"ha":486,"x_min":0,"x_max":417,"o":"m 0 486 l 347 486 l 347 417 l 417 417 l 417 69 l 347 69 l 347 0 l 0 0 l 0 69 l 278 69 l 278 208 l 139 208 l 139 278 l 278 278 l 278 347 l 347 347 l 347 417 l 0 417 l 0 486 z "},"ю":{"ha":625,"x_min":0,"x_max":556,"o":"m 0 486 l 69 486 l 69 347 l 139 347 l 139 278 l 208 278 l 208 417 l 278 417 l 278 486 l 486 486 l 486 417 l 556 417 l 556 69 l 486 69 l 486 0 l 278 0 l 278 69 l 208 69 l 208 208 l 139 208 l 139 0 l 0 0 l 0 486 m 278 69 l 417 69 l 417 347 l 486 347 l 486 417 l 278 417 l 278 69 z "},"я":{"ha":486,"x_min":0,"x_max":417,"o":"m 0 417 l 69 417 l 69 486 l 417 486 l 417 0 l 278 0 l 278 139 l 208 139 l 208 69 l 139 69 l 139 0 l 0 0 l 0 69 l 139 69 l 139 139 l 69 139 l 69 208 l 0 208 l 0 417 m 69 208 l 347 208 l 347 417 l 69 417 l 69 208 z "},"ё":{"ha":486,"x_min":0,"x_max":417,"o":"m 0 417 l 69 417 l 69 486 l 347 486 l 347 417 l 417 417 l 417 139 l 139 139 l 139 69 l 347 69 l 347 0 l 69 0 l 69 69 l 0 69 l 0 417 m 69 347 l 139 347 l 139 208 l 347 208 l 347 417 l 69 417 l 69 347 m 69 625 l 139 625 l 139 556 l 69 556 l 69 625 m 278 625 l 347 625 l 347 556 l 278 556 l 278 625 z "},"ђ":{"ha":556,"x_min":0,"x_max":486,"o":"m 0 486 l 69 486 l 69 625 l 139 625 l 139 486 l 417 486 l 417 417 l 486 417 l 486 -69 l 417 -69 l 417 -139 l 278 -139 l 278 -69 l 417 -69 l 417 417 l 139 417 l 139 347 l 208 347 l 208 0 l 69 0 l 69 417 l 0 417 l 0 486 z "},"ѓ":{"ha":486,"x_min":0,"x_max":417,"o":"m 0 486 l 417 486 l 417 417 l 69 417 l 69 347 l 139 347 l 139 0 l 0 0 l 0 486 m 208 625 l 278 625 l 278 694 l 347 694 l 347 625 l 278 625 l 278 556 l 208 556 l 208 625 z "},"є":{"ha":486,"x_min":0,"x_max":417,"o":"m 0 417 l 69 417 l 69 486 l 417 486 l 417 417 l 69 417 l 69 347 l 139 347 l 139 278 l 278 278 l 278 208 l 139 208 l 139 69 l 417 69 l 417 0 l 69 0 l 69 69 l 0 69 l 0 417 z "},"ѕ":{"ha":486,"x_min":0,"x_max":417,"o":"m 0 417 l 69 417 l 69 486 l 417 486 l 417 417 l 69 417 l 69 278 l 347 278 l 347 208 l 417 208 l 417 69 l 347 69 l 347 0 l 0 0 l 0 69 l 278 69 l 278 208 l 69 208 l 69 278 l 0 278 l 0 417 z "},"і":{"ha":347,"x_min":0,"x_max":278,"o":"m 0 486 l 278 486 l 278 417 l 139 417 l 139 347 l 208 347 l 208 69 l 278 69 l 278 0 l 0 0 l 0 69 l 69 69 l 69 417 l 0 417 l 0 486 m 69 625 l 208 625 l 208 556 l 69 556 l 69 625 z "},"ї":{"ha":347,"x_min":0,"x_max":278,"o":"m 0 486 l 278 486 l 278 417 l 139 417 l 139 347 l 208 347 l 208 69 l 278 69 l 278 0 l 0 0 l 0 69 l 69 69 l 69 417 l 0 417 l 0 486 m 208 625 l 278 625 l 278 556 l 208 556 l 208 625 m 0 625 l 69 625 l 69 556 l 0 556 l 0 625 z "},"ј":{"ha":417,"x_min":0,"x_max":347,"o":"m 69 486 l 347 486 l 347 -69 l 278 -69 l 278 -139 l 69 -139 l 69 -69 l 0 -69 l 0 0 l 69 0 l 69 -69 l 208 -69 l 208 347 l 278 347 l 278 417 l 69 417 l 69 486 m 139 625 l 278 625 l 278 556 l 139 556 l 139 625 z "},"љ":{"ha":694,"x_min":0,"x_max":625,"o":"m 0 417 l 69 417 l 69 486 l 347 486 l 347 347 l 556 347 l 556 278 l 625 278 l 625 69 l 556 69 l 556 0 l 278 0 l 278 417 l 69 417 l 69 347 l 139 347 l 139 0 l 0 0 l 0 417 m 417 69 l 556 69 l 556 278 l 417 278 l 417 69 z "},"њ":{"ha":694,"x_min":0,"x_max":625,"o":"m 0 486 l 69 486 l 69 347 l 278 347 l 278 486 l 347 486 l 347 347 l 556 347 l 556 278 l 625 278 l 625 69 l 556 69 l 556 0 l 278 0 l 278 278 l 139 278 l 139 0 l 0 0 l 0 486 m 417 69 l 556 69 l 556 278 l 417 278 l 417 69 z "},"ћ":{"ha":556,"x_min":0,"x_max":486,"o":"m 0 486 l 69 486 l 69 625 l 139 625 l 139 486 l 417 486 l 417 417 l 486 417 l 486 0 l 417 0 l 417 417 l 139 417 l 139 347 l 208 347 l 208 0 l 69 0 l 69 417 l 0 417 l 0 486 z "},"ќ":{"ha":486,"x_min":0,"x_max":417,"o":"m 0 486 l 69 486 l 69 278 l 278 278 l 278 347 l 347 347 l 347 486 l 417 486 l 417 347 l 347 347 l 347 278 l 278 278 l 278 208 l 347 208 l 347 139 l 417 139 l 417 0 l 347 0 l 347 139 l 278 139 l 278 208 l 139 208 l 139 0 l 0 0 l 0 486 m 208 625 l 278 625 l 278 694 l 347 694 l 347 625 l 278 625 l 278 556 l 208 556 l 208 625 z "},"ў":{"ha":486,"x_min":0,"x_max":417,"o":"m 0 486 l 69 486 l 69 69 l 278 69 l 278 417 l 347 417 l 347 486 l 417 486 l 417 -69 l 347 -69 l 347 -139 l 69 -139 l 69 -69 l 278 -69 l 278 0 l 69 0 l 69 69 l 0 69 l 0 486 m 69 694 l 139 694 l 139 625 l 278 625 l 278 694 l 347 694 l 347 625 l 278 625 l 278 556 l 139 556 l 139 625 l 69 625 l 69 694 z "},"џ":{"ha":486,"x_min":0,"x_max":417,"o":"m 0 486 l 69 486 l 69 347 l 139 347 l 139 69 l 347 69 l 347 486 l 417 486 l 417 0 l 278 0 l 278 -139 l 139 -139 l 139 0 l 0 0 l 0 486 z "},"Ґ":{"ha":556,"x_min":0,"x_max":486,"o":"m 0 625 l 417 625 l 417 764 l 486 764 l 486 556 l 69 556 l 69 347 l 139 347 l 139 0 l 0 0 l 0 625 z "},"ґ":{"ha":486,"x_min":0,"x_max":417,"o":"m 0 486 l 347 486 l 347 625 l 417 625 l 417 417 l 69 417 l 69 347 l 139 347 l 139 0 l 0 0 l 0 486 z "},"№":{"ha":833,"x_min":0,"x_max":764,"o":"m 0 625 l 69 625 l 69 486 l 139 486 l 139 417 l 208 417 l 208 347 l 278 347 l 278 278 l 347 278 l 347 208 l 417 208 l 417 625 l 486 625 l 486 0 l 417 0 l 417 139 l 347 139 l 347 208 l 278 208 l 278 278 l 208 278 l 208 347 l 139 347 l 139 0 l 0 0 l 0 625 m 556 625 l 764 625 l 764 417 l 556 417 l 556 625 m 556 347 l 764 347 l 764 278 l 556 278 l 556 347 m 625 486 l 694 486 l 694 556 l 625 556 l 625 486 z "},"$":{"ha":556,"x_min":0,"x_max":486,"o":"m 0 556 l 69 556 l 69 625 l 208 625 l 208 694 l 278 694 l 278 625 l 486 625 l 486 556 l 278 556 l 278 347 l 417 347 l 417 278 l 486 278 l 486 69 l 417 69 l 417 0 l 278 0 l 278 -69 l 208 -69 l 208 0 l 0 0 l 0 69 l 208 69 l 208 278 l 69 278 l 69 347 l 0 347 l 0 556 m 69 347 l 208 347 l 208 556 l 69 556 l 69 347 m 278 69 l 347 69 l 347 278 l 278 278 l 278 69 z "},"!":{"ha":208,"x_min":0,"x_max":139,"o":"m 0 625 l 69 625 l 69 417 l 139 417 l 139 139 l 0 139 l 0 625 m 0 69 l 139 69 l 139 0 l 0 0 l 0 69 z "},"\"":{"ha":278,"x_min":0,"x_max":208,"o":"m 0 625 l 69 625 l 69 417 l 0 417 l 0 625 m 139 625 l 208 625 l 208 417 l 139 417 l 139 625 z "},"#":{"ha":625,"x_min":0,"x_max":556,"o":"m 0 486 l 69 486 l 69 625 l 139 625 l 139 486 l 347 486 l 347 625 l 417 625 l 417 486 l 556 486 l 556 417 l 417 417 l 417 347 l 486 347 l 486 208 l 556 208 l 556 139 l 486 139 l 486 0 l 347 0 l 347 139 l 208 139 l 208 0 l 69 0 l 69 139 l 0 139 l 0 208 l 69 208 l 69 417 l 0 417 l 0 486 m 139 347 l 208 347 l 208 208 l 347 208 l 347 417 l 139 417 l 139 347 z "}}}
